<svg width="71" height="71" viewBox="0 0 71 71" fill="none" xmlns="http://www.w3.org/2000/svg">
<path fill-rule="evenodd" clip-rule="evenodd" d="M33.3767 0C32.2721 0 31.3767 0.895432 31.3767 2V31.3767H2C0.895431 31.3767 0 32.2721 0 33.3767V37.0608C0 38.1654 0.895432 39.0608 2 39.0608H31.3767V68.4375C31.3767 69.5421 32.2721 70.4375 33.3767 70.4375H37.0607C38.1653 70.4375 39.0607 69.5421 39.0607 68.4375V39.0608H68.4375C69.5421 39.0608 70.4375 38.1654 70.4375 37.0608V33.3767C70.4375 32.2721 69.5421 31.3767 68.4375 31.3767H39.0607V2C39.0607 0.895431 38.1653 0 37.0607 0H33.3767Z" fill="white"/>
</svg>
