<svg width="1167" height="509" viewBox="0 0 1167 509" fill="none" xmlns="http://www.w3.org/2000/svg">
<path d="M5.6875 245.636L5.6875 147.539C5.6875 131.173 18.9546 117.906 35.3204 117.906H76.137L76.137 405.493C76.137 421.858 89.4041 435.125 105.77 435.125H522.78C533.109 435.125 541.483 443.499 541.483 453.828V502.78L1161.94 502.78V245.379C1161.94 234.513 1153.14 225.705 1142.27 225.705H1037.73C1030.09 225.705 1023.89 219.506 1023.89 211.86V10.3885" stroke="white" stroke-width="2"/>
<path d="M540.852 506.613C538.368 506.613 536.665 504.861 536.665 503.06C536.665 501.259 538.368 499.507 540.852 499.507C543.335 499.507 545.038 501.259 545.038 503.06C545.038 504.861 543.335 506.613 540.852 506.613Z" fill="white" stroke="white" stroke-width="3"/>
<path d="M1161.31 506.613C1158.83 506.613 1157.13 504.861 1157.13 503.06C1157.13 501.259 1158.83 499.507 1161.31 499.507C1163.8 499.507 1165.5 501.259 1165.5 503.06C1165.5 504.861 1163.8 506.613 1161.31 506.613Z" fill="white" stroke="white" stroke-width="3"/>
<path d="M1023.58 8.6061C1021.09 8.6061 1019.39 6.85371 1019.39 5.05305C1019.39 3.25239 1021.09 1.5 1023.58 1.5C1026.06 1.5 1027.76 3.25239 1027.76 5.05305C1027.76 6.85371 1026.06 8.6061 1023.58 8.6061Z" fill="white" stroke="white" stroke-width="3"/>
<path d="M5.68654 250.592C3.20294 250.592 1.50003 248.84 1.50003 247.039C1.50003 245.238 3.20294 243.486 5.68654 243.486C8.17013 243.486 9.87305 245.238 9.87305 247.039C9.87305 248.84 8.17013 250.592 5.68654 250.592Z" fill="white" stroke="white" stroke-width="3"/>
<path d="M75.1914 121.46C72.7078 121.46 71.0049 119.708 71.0049 117.907C71.0049 116.106 72.7078 114.354 75.1914 114.354C77.675 114.354 79.3779 116.106 79.3779 117.907C79.3779 119.708 77.675 121.46 75.1914 121.46Z" fill="white" stroke="white" stroke-width="3"/>
</svg>
