<svg width="1280" height="2546" viewBox="0 0 1280 2546" fill="none" xmlns="http://www.w3.org/2000/svg">
<g opacity="0.918367">
<path opacity="0.01" d="M0.011169 826.976C-244.037 844.976 -487.484 350.241 -462.091 71.8419C-436.699 -206.558 -22.7887 -408.363 313.75 -232.758C879.439 62.4148 1159.27 -610.386 648.992 -1282.01" stroke="url(#paint0_radial_6_4814)" stroke-width="3" stroke-dasharray="3 3"/>
<path opacity="0.0204082" d="M-2.8577 829.136C-247.378 836.614 -468.63 332.395 -430.963 55.6361C-393.296 -221.123 28.9861 -404.745 357.315 -215.026C909.203 103.871 1218.4 -555.578 738.498 -1247.8" stroke="url(#paint1_radial_6_4814)" stroke-width="3" stroke-dasharray="3 3"/>
<path opacity="0.0408163" d="M-5.95469 831.428C-250.494 828.377 -449.187 315.666 -399.341 41.0882C-349.495 -233.49 80.3607 -398.582 399.889 -195.131C936.985 146.85 1274.92 -497.967 826.214 -1209.42" stroke="url(#paint2_radial_6_4814)" stroke-width="3" stroke-dasharray="3 3"/>
<path opacity="0.0612245" d="M-9.28513 833.841C-253.39 820.273 -429.206 300.078 -367.3 28.2161C-305.394 -243.646 131.223 -389.897 441.379 -173.119C962.72 191.264 1328.71 -437.67 911.957 -1166.95" stroke="url(#paint3_radial_6_4814)" stroke-width="3" stroke-dasharray="3 3"/>
<path opacity="0.0816327" d="M-12.8543 836.365C-256.073 812.313 -408.738 285.652 -334.914 17.0347C-261.09 -251.583 181.463 -378.717 481.692 -149.041C986.346 237.021 1379.65 -374.812 995.55 -1120.49" stroke="url(#paint4_radial_6_4814)" stroke-width="3" stroke-dasharray="3 3"/>
<path opacity="0.102041" d="M-16.6669 838.99C-258.549 804.504 -387.834 272.406 -302.258 7.55516C-216.681 -257.296 230.971 -365.074 520.739 -122.953C1007.81 284.027 1427.62 -309.519 1076.82 -1070.14" stroke="url(#paint5_radial_6_4814)" stroke-width="3" stroke-dasharray="3 3"/>
<path opacity="0.122449" d="M-20.7267 841.706C-260.826 796.856 -366.547 260.356 -269.407 -0.214812C-172.266 -260.786 279.64 -349.005 558.432 -94.9134C1027.05 332.188 1472.53 -241.925 1155.59 -1016" stroke="url(#paint6_radial_6_4814)" stroke-width="3" stroke-dasharray="3 3"/>
<path opacity="0.142857" d="M-25.0378 844.5C-262.91 789.377 -344.931 249.517 -236.437 -6.27046C-127.942 -262.058 327.362 -330.551 594.687 -64.9853C1044.03 381.403 1514.28 -172.168 1231.71 -958.196" stroke="url(#paint7_radial_6_4814)" stroke-width="3" stroke-dasharray="3 3"/>
<path opacity="0.163265" d="M-29.6033 847.363C-264.809 782.075 -323.038 239.899 -203.423 -10.6103C-83.8077 -261.119 374.035 -309.759 629.422 -33.2345C1058.7 431.575 1552.77 -100.389 1305.02 -896.846" stroke="url(#paint8_radial_6_4814)" stroke-width="3" stroke-dasharray="3 3"/>
<path opacity="0.183673" d="M-34.4258 850.283C-266.532 774.957 -300.923 231.512 -170.441 -13.2367C-39.9585 -257.985 419.558 -286.679 662.56 0.268425C1071.02 482.598 1587.93 -26.733 1375.35 -832.081" stroke="url(#paint9_radial_6_4814)" stroke-width="3" stroke-dasharray="3 3"/>
<path opacity="0.204082" d="M-39.5075 853.248C-268.086 768.03 -278.639 224.363 -137.565 -14.155C3.50891 -252.672 463.83 -261.368 694.024 35.4505C1080.96 534.372 1619.67 48.6506 1442.57 -764.038" stroke="url(#paint10_radial_6_4814)" stroke-width="3" stroke-dasharray="3 3"/>
<path opacity="0.22449" d="M-44.8505 856.248C-269.48 761.302 -256.242 218.455 -104.871 -13.3735C46.4995 -245.202 506.755 -233.883 723.743 72.2352C1088.48 586.789 1647.91 125.609 1506.54 -692.859" stroke="url(#paint11_radial_6_4814)" stroke-width="3" stroke-dasharray="3 3"/>
<path opacity="0.244898" d="M-50.4557 859.271C-270.723 754.779 -233.786 213.792 -72.4331 -10.9044C88.9194 -235.601 548.24 -204.289 751.649 110.543C1093.56 639.744 1672.6 203.988 1567.12 -618.694" stroke="url(#paint12_radial_6_4814)" stroke-width="3" stroke-dasharray="3 3"/>
<path opacity="0.265306" d="M-56.3241 862.305C-271.824 748.467 -211.324 210.373 -40.324 -6.76261C130.676 -223.898 588.194 -172.654 777.676 150.291C1096.18 693.129 1693.68 283.629 1624.18 -541.695" stroke="url(#paint13_radial_6_4814)" stroke-width="3" stroke-dasharray="3 3"/>
<path opacity="0.285714" d="M-62.4557 865.339C-272.792 742.372 -188.912 208.194 -8.6167 -0.96659C171.678 -210.127 626.529 -139.048 801.764 191.395C1096.32 746.837 1711.08 364.372 1677.6 -462.024" stroke="url(#paint14_radial_6_4814)" stroke-width="3" stroke-dasharray="3 3"/>
<path opacity="0.306122" d="M-68.8505 868.362C-273.637 736.498 -166.603 207.251 22.6171 6.46239C211.837 -194.327 663.16 -103.548 823.855 233.766C1093.97 800.757 1724.78 446.053 1727.27 -379.845" stroke="url(#paint15_radial_6_4814)" stroke-width="3" stroke-dasharray="3 3"/>
<path opacity="0.326531" d="M-75.5075 871.362C-274.368 730.852 -144.451 207.537 53.3069 15.4996C251.065 -176.538 698.008 -66.2313 843.897 277.315C1089.12 854.781 1734.73 528.509 1773.09 -295.329" stroke="url(#paint16_radial_6_4814)" stroke-width="3" stroke-dasharray="3 3"/>
<path opacity="0.346939" d="M-82.4257 874.327C-274.997 725.436 -122.509 209.042 83.3834 26.1176C289.276 -156.806 730.995 -27.1813 861.839 321.949C1081.78 908.8 1740.9 611.574 1814.96 -208.649" stroke="url(#paint17_radial_6_4814)" stroke-width="3" stroke-dasharray="3 3"/>
<path opacity="0.367347" d="M-89.6033 877.247C-275.531 720.256 -100.83 211.753 112.778 38.2857C326.387 -135.181 762.048 13.5166 877.638 367.572C1071.93 962.704 1743.27 695.081 1852.78 -119.983" stroke="url(#paint18_radial_6_4814)" stroke-width="3" stroke-dasharray="3 3"/>
<path opacity="0.387755" d="M-97.0378 880.109C-275.983 715.315 -79.4659 215.656 141.426 51.9704C362.318 -111.715 791.096 55.774 891.252 414.09C1059.6 1016.38 1741.82 778.862 1886.48 -29.514" stroke="url(#paint19_radial_6_4814)" stroke-width="3" stroke-dasharray="3 3"/>
<path opacity="0.408163" d="M-104.727 882.904C-276.362 710.615 -58.4678 220.735 169.261 67.1355C396.989 -86.4643 818.076 99.499 902.645 461.404C1044.8 1069.73 1736.55 862.749 1915.98 62.5734" stroke="url(#paint20_radial_6_4814)" stroke-width="3" stroke-dasharray="3 3"/>
<path opacity="0.428571" d="M-112.667 885.619C-276.679 706.16 -37.8861 226.971 196.22 83.7418C430.325 -59.4878 842.925 144.597 911.785 509.415C1027.53 1122.64 1727.46 946.574 1941.21 156.091" stroke="url(#paint21_radial_6_4814)" stroke-width="3" stroke-dasharray="3 3"/>
<path opacity="0.44898" d="M-120.854 888.244C-276.945 701.952 -17.7704 234.343 222.242 101.747C462.254 -30.8486 865.586 190.972 918.644 558.021C1007.83 1174.99 1714.55 1030.17 1962.12 250.847" stroke="url(#paint22_radial_6_4814)" stroke-width="3" stroke-dasharray="3 3"/>
<path opacity="0.469388" d="M-129.285 890.769C-277.17 697.992 1.83092 242.828 247.268 121.108C492.704 -0.612175 886.008 238.525 923.199 607.121C985.713 1226.7 1697.83 1113.36 1978.67 346.649" stroke="url(#paint23_radial_6_4814)" stroke-width="3" stroke-dasharray="3 3"/>
<path opacity="0.489796" d="M-137.955 893.182C-277.365 694.282 20.8706 252.401 271.24 141.777C521.61 31.1526 904.142 287.153 925.432 656.613C961.218 1277.64 1677.33 1195.99 1990.8 443.302" stroke="url(#paint24_radial_6_4814)" stroke-width="3" stroke-dasharray="3 3"/>
<path opacity="0.510204" d="M-146.858 895.474C-277.54 690.823 39.3025 263.035 294.105 163.705C548.907 64.3746 919.945 336.754 925.329 706.392C934.379 1327.72 1653.08 1277.89 1998.5 540.609" stroke="url(#paint25_radial_6_4814)" stroke-width="3" stroke-dasharray="3 3"/>
<path opacity="0.530612" d="M-155.989 897.634C-277.707 687.614 57.0818 274.7 315.808 186.84C574.534 98.9793 933.377 387.222 922.88 756.356C905.235 1376.83 1625.11 1358.9 2001.73 638.372" stroke="url(#paint26_radial_6_4814)" stroke-width="3" stroke-dasharray="3 3"/>
<path opacity="0.55102" d="M-165.342 899.652C-277.877 684.656 74.1651 287.366 336.3 211.128C598.435 134.89 944.405 438.451 918.08 806.399C873.831 1424.88 1593.47 1438.84 2000.48 736.394" stroke="url(#paint27_radial_6_4814)" stroke-width="3" stroke-dasharray="3 3"/>
<path opacity="0.571429" d="M-174.911 901.519C-278.059 681.948 90.5104 301 355.533 236.514C620.555 172.029 953 490.334 910.93 856.418C840.216 1471.77 1558.21 1517.57 1994.76 834.476" stroke="url(#paint28_radial_6_4814)" stroke-width="3" stroke-dasharray="3 3"/>
<path opacity="0.591837" d="M-184.689 903.227C-278.266 679.489 106.077 315.568 373.461 262.94C640.846 210.313 959.136 542.761 901.434 906.309C804.443 1517.4 1519.38 1594.92 1984.55 932.418" stroke="url(#paint29_radial_6_4814)" stroke-width="3" stroke-dasharray="3 3"/>
<path opacity="0.612245" d="M-194.669 904.764C-278.506 677.277 120.827 331.033 390.043 290.347C659.26 249.661 962.795 595.621 889.601 955.968C766.569 1561.67 1477.05 1670.73 1969.88 1030.02" stroke="url(#paint30_radial_6_4814)" stroke-width="3" stroke-dasharray="3 3"/>
<path opacity="0.632653" d="M-204.842 906.124C-278.792 675.311 134.722 347.357 405.238 318.671C675.754 289.986 963.962 648.806 875.445 1005.29C726.656 1604.51 1431.29 1744.87 1950.77 1127.1" stroke="url(#paint31_radial_6_4814)" stroke-width="3" stroke-dasharray="3 3"/>
<path opacity="0.653061" d="M-215.202 907.298C-279.133 673.589 147.727 364.502 419.009 347.852C690.291 331.202 962.627 702.203 858.983 1054.18C684.769 1645.81 1382.18 1817.17 1927.25 1223.44" stroke="url(#paint32_radial_6_4814)" stroke-width="3" stroke-dasharray="3 3"/>
<path opacity="0.673469" d="M-225.74 908.278C-279.54 672.106 159.809 382.426 431.322 377.824C702.835 373.222 958.785 755.702 840.239 1102.52C640.977 1685.5 1329.8 1887.49 1899.35 1318.85" stroke="url(#paint33_radial_6_4814)" stroke-width="3" stroke-dasharray="3 3"/>
<path opacity="0.693878" d="M-236.447 909.055C-280.023 670.861 170.936 401.087 442.145 408.521C713.355 415.955 952.436 809.19 819.24 1150.23C595.352 1723.49 1274.25 1955.69 1867.12 1413.15" stroke="url(#paint34_radial_6_4814)" stroke-width="3" stroke-dasharray="3 3"/>
<path opacity="0.714286" d="M-247.314 909.624C-280.592 669.849 181.077 420.441 451.451 439.876C721.825 459.31 943.585 862.558 796.017 1197.2C547.97 1759.7 1215.61 2021.63 1830.63 1506.15" stroke="url(#paint35_radial_6_4814)" stroke-width="3" stroke-dasharray="3 3"/>
<path opacity="0.734694" d="M-258.333 909.978C-281.257 669.066 190.205 440.445 459.214 471.821C728.222 503.197 932.243 915.695 770.606 1243.34C498.912 1794.07 1154 2085.18 1789.92 1597.64" stroke="url(#paint36_radial_6_4814)" stroke-width="3" stroke-dasharray="3 3"/>
<path opacity="0.755102" d="M-269.493 910.109C-282.027 668.507 198.295 461.053 465.411 504.287C732.526 547.522 918.424 968.49 743.048 1288.54C448.259 1826.51 1089.52 2146.21 1745.09 1687.46" stroke="url(#paint37_radial_6_4814)" stroke-width="3" stroke-dasharray="3 3"/>
<path opacity="0.77551" d="M-280.784 910.012C-282.912 668.169 205.322 482.217 470.023 537.204C734.725 592.192 902.147 1020.83 713.386 1332.72C396.098 1856.96 1022.29 2204.59 1696.2 1775.43" stroke="url(#paint38_radial_6_4814)" stroke-width="3" stroke-dasharray="3 3"/>
<path opacity="0.795918" d="M-292.198 909.681C-283.921 668.044 211.265 503.889 473.035 570.502C734.806 637.114 883.438 1072.62 681.669 1375.78C342.517 1885.35 952.418 2260.22 1643.34 1861.35" stroke="url(#paint39_radial_6_4814)" stroke-width="3" stroke-dasharray="3 3"/>
<path opacity="0.816327" d="M-303.722 909.112C-285.063 668.128 216.103 526.023 474.433 604.108C732.763 682.193 862.325 1123.74 647.95 1417.63C287.607 1911.63 880.038 2312.97 1586.61 1945.07" stroke="url(#paint40_radial_6_4814)" stroke-width="3" stroke-dasharray="3 3"/>
<path opacity="0.836735" d="M-315.347 908.3C-286.347 668.414 219.821 548.567 474.208 637.952C728.596 727.337 838.843 1174.09 612.285 1458.19C231.463 1935.74 805.276 2362.74 1526.12 2026.41" stroke="url(#paint41_radial_6_4814)" stroke-width="3" stroke-dasharray="3 3"/>
<path opacity="0.857143" d="M-327.063 907.24C-287.781 668.896 222.402 571.472 472.353 671.961C722.304 772.451 813.029 1223.57 574.733 1497.38C174.181 1957.63 728.266 2409.42 1461.98 2105.21" stroke="url(#paint42_radial_6_4814)" stroke-width="3" stroke-dasharray="3 3"/>
<path opacity="0.877551" d="M-338.857 905.929C-289.373 669.568 223.833 594.688 468.865 706.065C713.896 817.441 784.928 1272.07 535.359 1535.1C115.86 1977.24 649.147 2452.93 1394.29 2181.31" stroke="url(#paint43_radial_6_4814)" stroke-width="3" stroke-dasharray="3 3"/>
<path opacity="0.897959" d="M-350.72 904.363C-291.131 670.421 224.104 618.165 463.743 740.19C703.381 862.215 754.585 1319.49 494.23 1571.29C56.5988 1994.55 568.06 2493.16 1323.2 2254.57" stroke="url(#paint44_radial_6_4814)" stroke-width="3" stroke-dasharray="3 3"/>
<path opacity="0.918367" d="M-362.64 902.541C-293.063 671.448 223.207 641.849 456.99 774.265C690.772 906.681 722.054 1365.74 451.416 1605.87C-3.49903 2009.49 485.151 2530.05 1248.82 2324.82" stroke="url(#paint45_radial_6_4814)" stroke-width="3" stroke-dasharray="3 3"/>
<path opacity="0.938776" d="M-374.605 900.459C-295.175 672.642 221.134 665.691 448.612 808.218C676.09 950.746 687.39 1410.72 406.992 1638.76C-64.3298 2022.06 400.571 2563.51 1171.3 2391.94" stroke="url(#paint46_radial_6_4814)" stroke-width="3" stroke-dasharray="3 3"/>
<path opacity="0.959184" d="M-386.605 898.116C-297.475 673.995 217.883 689.638 438.619 841.979C659.355 994.321 650.654 1454.35 361.034 1669.89C-125.788 2032.2 314.471 2593.46 1090.78 2455.78" stroke="url(#paint47_radial_6_4814)" stroke-width="3" stroke-dasharray="3 3"/>
<path opacity="0.979592" d="M-398.627 895.511C-299.968 675.498 213.451 713.639 427.023 875.477C640.594 1037.32 611.908 1496.52 313.622 1699.21C-187.768 2039.9 227.008 2619.86 1007.41 2516.22" stroke="url(#paint48_radial_6_4814)" stroke-width="3" stroke-dasharray="3 3"/>
<path d="M-410.662 892.642C-302.662 677.143 207.838 737.642 413.838 908.642C619.838 1079.64 571.222 1537.16 264.838 1726.64C-250.162 2045.14 138.338 2642.64 921.338 2573.14" stroke="url(#paint49_radial_6_4814)" stroke-width="3" stroke-dasharray="3 3"/>
</g>
<defs>
<radialGradient id="paint0_radial_6_4814" cx="0" cy="0" r="1" gradientUnits="userSpaceOnUse" gradientTransform="translate(268.515 -191.848) rotate(-32.5) scale(912.205 715)">
<stop stop-color="#9B9C9E"/>
<stop offset="1" stop-color="#9B9C9E" stop-opacity="0"/>
</radialGradient>
<radialGradient id="paint1_radial_6_4814" cx="0" cy="0" r="1" gradientUnits="userSpaceOnUse" gradientTransform="translate(310.332 -176.14) rotate(-30) scale(912.205 714)">
<stop stop-color="#9B9C9E"/>
<stop offset="1" stop-color="#9B9C9E" stop-opacity="0"/>
</radialGradient>
<radialGradient id="paint2_radial_6_4814" cx="0" cy="0" r="1" gradientUnits="userSpaceOnUse" gradientTransform="translate(351.248 -158.343) rotate(-27.5) scale(912.205 713)">
<stop stop-color="#9B9C9E"/>
<stop offset="1" stop-color="#9B9C9E" stop-opacity="0"/>
</radialGradient>
<radialGradient id="paint3_radial_6_4814" cx="0" cy="0" r="1" gradientUnits="userSpaceOnUse" gradientTransform="translate(391.173 -138.501) rotate(-25) scale(912.205 712)">
<stop stop-color="#9B9C9E"/>
<stop offset="1" stop-color="#9B9C9E" stop-opacity="0"/>
</radialGradient>
<radialGradient id="paint4_radial_6_4814" cx="0" cy="0" r="1" gradientUnits="userSpaceOnUse" gradientTransform="translate(430.018 -116.66) rotate(-22.5) scale(912.205 711)">
<stop stop-color="#9B9C9E"/>
<stop offset="1" stop-color="#9B9C9E" stop-opacity="0"/>
</radialGradient>
<radialGradient id="paint5_radial_6_4814" cx="0" cy="0" r="1" gradientUnits="userSpaceOnUse" gradientTransform="translate(467.697 -92.8697) rotate(-20) scale(912.205 710)">
<stop stop-color="#9B9C9E"/>
<stop offset="1" stop-color="#9B9C9E" stop-opacity="0"/>
</radialGradient>
<radialGradient id="paint6_radial_6_4814" cx="0" cy="0" r="1" gradientUnits="userSpaceOnUse" gradientTransform="translate(504.124 -67.1861) rotate(-17.5) scale(912.205 709)">
<stop stop-color="#9B9C9E"/>
<stop offset="1" stop-color="#9B9C9E" stop-opacity="0"/>
</radialGradient>
<radialGradient id="paint7_radial_6_4814" cx="0" cy="0" r="1" gradientUnits="userSpaceOnUse" gradientTransform="translate(539.217 -39.667) rotate(-15) scale(912.205 708)">
<stop stop-color="#9B9C9E"/>
<stop offset="1" stop-color="#9B9C9E" stop-opacity="0"/>
</radialGradient>
<radialGradient id="paint8_radial_6_4814" cx="0" cy="0" r="1" gradientUnits="userSpaceOnUse" gradientTransform="translate(572.898 -10.3737) rotate(-12.5) scale(912.205 707)">
<stop stop-color="#9B9C9E"/>
<stop offset="1" stop-color="#9B9C9E" stop-opacity="0"/>
</radialGradient>
<radialGradient id="paint9_radial_6_4814" cx="0" cy="0" r="1" gradientUnits="userSpaceOnUse" gradientTransform="translate(605.09 20.6278) rotate(-10) scale(912.205 706)">
<stop stop-color="#9B9C9E"/>
<stop offset="1" stop-color="#9B9C9E" stop-opacity="0"/>
</radialGradient>
<radialGradient id="paint10_radial_6_4814" cx="0" cy="0" r="1" gradientUnits="userSpaceOnUse" gradientTransform="translate(635.719 53.2696) rotate(-7.5) scale(912.205 705)">
<stop stop-color="#9B9C9E"/>
<stop offset="1" stop-color="#9B9C9E" stop-opacity="0"/>
</radialGradient>
<radialGradient id="paint11_radial_6_4814" cx="0" cy="0" r="1" gradientUnits="userSpaceOnUse" gradientTransform="translate(664.715 87.4799) rotate(-5) scale(912.205 704)">
<stop stop-color="#9B9C9E"/>
<stop offset="1" stop-color="#9B9C9E" stop-opacity="0"/>
</radialGradient>
<radialGradient id="paint12_radial_6_4814" cx="0" cy="0" r="1" gradientUnits="userSpaceOnUse" gradientTransform="translate(692.011 123.184) rotate(-2.5) scale(912.205 703)">
<stop stop-color="#9B9C9E"/>
<stop offset="1" stop-color="#9B9C9E" stop-opacity="0"/>
</radialGradient>
<radialGradient id="paint13_radial_6_4814" cx="0" cy="0" r="1" gradientUnits="userSpaceOnUse" gradientTransform="translate(717.544 160.305) scale(912.205 702)">
<stop stop-color="#9B9C9E"/>
<stop offset="1" stop-color="#9B9C9E" stop-opacity="0"/>
</radialGradient>
<radialGradient id="paint14_radial_6_4814" cx="0" cy="0" r="1" gradientUnits="userSpaceOnUse" gradientTransform="translate(741.253 198.762) rotate(2.5) scale(912.205 701)">
<stop stop-color="#9B9C9E"/>
<stop offset="1" stop-color="#9B9C9E" stop-opacity="0"/>
</radialGradient>
<radialGradient id="paint15_radial_6_4814" cx="0" cy="0" r="1" gradientUnits="userSpaceOnUse" gradientTransform="translate(763.082 238.473) rotate(5) scale(912.205 700)">
<stop stop-color="#9B9C9E"/>
<stop offset="1" stop-color="#9B9C9E" stop-opacity="0"/>
</radialGradient>
<radialGradient id="paint16_radial_6_4814" cx="0" cy="0" r="1" gradientUnits="userSpaceOnUse" gradientTransform="translate(782.978 279.352) rotate(7.5) scale(912.205 699)">
<stop stop-color="#9B9C9E"/>
<stop offset="1" stop-color="#9B9C9E" stop-opacity="0"/>
</radialGradient>
<radialGradient id="paint17_radial_6_4814" cx="0" cy="0" r="1" gradientUnits="userSpaceOnUse" gradientTransform="translate(800.892 321.312) rotate(10) scale(912.205 698)">
<stop stop-color="#9B9C9E"/>
<stop offset="1" stop-color="#9B9C9E" stop-opacity="0"/>
</radialGradient>
<radialGradient id="paint18_radial_6_4814" cx="0" cy="0" r="1" gradientUnits="userSpaceOnUse" gradientTransform="translate(816.779 364.264) rotate(12.5) scale(912.205 697)">
<stop stop-color="#9B9C9E"/>
<stop offset="1" stop-color="#9B9C9E" stop-opacity="0"/>
</radialGradient>
<radialGradient id="paint19_radial_6_4814" cx="0" cy="0" r="1" gradientUnits="userSpaceOnUse" gradientTransform="translate(830.599 408.117) rotate(15) scale(912.205 696)">
<stop stop-color="#9B9C9E"/>
<stop offset="1" stop-color="#9B9C9E" stop-opacity="0"/>
</radialGradient>
<radialGradient id="paint20_radial_6_4814" cx="0" cy="0" r="1" gradientUnits="userSpaceOnUse" gradientTransform="translate(842.315 452.777) rotate(17.5) scale(912.205 695)">
<stop stop-color="#9B9C9E"/>
<stop offset="1" stop-color="#9B9C9E" stop-opacity="0"/>
</radialGradient>
<radialGradient id="paint21_radial_6_4814" cx="0" cy="0" r="1" gradientUnits="userSpaceOnUse" gradientTransform="translate(851.893 498.151) rotate(20) scale(912.205 694)">
<stop stop-color="#9B9C9E"/>
<stop offset="1" stop-color="#9B9C9E" stop-opacity="0"/>
</radialGradient>
<radialGradient id="paint22_radial_6_4814" cx="0" cy="0" r="1" gradientUnits="userSpaceOnUse" gradientTransform="translate(859.306 544.142) rotate(22.5) scale(912.205 693)">
<stop stop-color="#9B9C9E"/>
<stop offset="1" stop-color="#9B9C9E" stop-opacity="0"/>
</radialGradient>
<radialGradient id="paint23_radial_6_4814" cx="0" cy="0" r="1" gradientUnits="userSpaceOnUse" gradientTransform="translate(864.529 590.655) rotate(25) scale(912.205 692)">
<stop stop-color="#9B9C9E"/>
<stop offset="1" stop-color="#9B9C9E" stop-opacity="0"/>
</radialGradient>
<radialGradient id="paint24_radial_6_4814" cx="0" cy="0" r="1" gradientUnits="userSpaceOnUse" gradientTransform="translate(867.543 637.59) rotate(27.5) scale(912.205 691)">
<stop stop-color="#9B9C9E"/>
<stop offset="1" stop-color="#9B9C9E" stop-opacity="0"/>
</radialGradient>
<radialGradient id="paint25_radial_6_4814" cx="0" cy="0" r="1" gradientUnits="userSpaceOnUse" gradientTransform="translate(868.331 684.85) rotate(30) scale(912.205 690)">
<stop stop-color="#9B9C9E"/>
<stop offset="1" stop-color="#9B9C9E" stop-opacity="0"/>
</radialGradient>
<radialGradient id="paint26_radial_6_4814" cx="0" cy="0" r="1" gradientUnits="userSpaceOnUse" gradientTransform="translate(866.884 732.336) rotate(32.5) scale(912.205 689)">
<stop stop-color="#9B9C9E"/>
<stop offset="1" stop-color="#9B9C9E" stop-opacity="0"/>
</radialGradient>
<radialGradient id="paint27_radial_6_4814" cx="0" cy="0" r="1" gradientUnits="userSpaceOnUse" gradientTransform="translate(863.194 779.948) rotate(35) scale(912.205 688)">
<stop stop-color="#9B9C9E"/>
<stop offset="1" stop-color="#9B9C9E" stop-opacity="0"/>
</radialGradient>
<radialGradient id="paint28_radial_6_4814" cx="0" cy="0" r="1" gradientUnits="userSpaceOnUse" gradientTransform="translate(857.259 827.587) rotate(37.5) scale(912.205 687)">
<stop stop-color="#9B9C9E"/>
<stop offset="1" stop-color="#9B9C9E" stop-opacity="0"/>
</radialGradient>
<radialGradient id="paint29_radial_6_4814" cx="0" cy="0" r="1" gradientUnits="userSpaceOnUse" gradientTransform="translate(849.081 875.153) rotate(40) scale(912.205 686)">
<stop stop-color="#9B9C9E"/>
<stop offset="1" stop-color="#9B9C9E" stop-opacity="0"/>
</radialGradient>
<radialGradient id="paint30_radial_6_4814" cx="0" cy="0" r="1" gradientUnits="userSpaceOnUse" gradientTransform="translate(838.666 922.547) rotate(42.5) scale(912.205 685)">
<stop stop-color="#9B9C9E"/>
<stop offset="1" stop-color="#9B9C9E" stop-opacity="0"/>
</radialGradient>
<radialGradient id="paint31_radial_6_4814" cx="0" cy="0" r="1" gradientUnits="userSpaceOnUse" gradientTransform="translate(826.026 969.671) rotate(45) scale(912.205 684)">
<stop stop-color="#9B9C9E"/>
<stop offset="1" stop-color="#9B9C9E" stop-opacity="0"/>
</radialGradient>
<radialGradient id="paint32_radial_6_4814" cx="0" cy="0" r="1" gradientUnits="userSpaceOnUse" gradientTransform="translate(811.176 1016.43) rotate(47.5) scale(912.205 683)">
<stop stop-color="#9B9C9E"/>
<stop offset="1" stop-color="#9B9C9E" stop-opacity="0"/>
</radialGradient>
<radialGradient id="paint33_radial_6_4814" cx="0" cy="0" r="1" gradientUnits="userSpaceOnUse" gradientTransform="translate(794.135 1062.71) rotate(50) scale(912.205 682)">
<stop stop-color="#9B9C9E"/>
<stop offset="1" stop-color="#9B9C9E" stop-opacity="0"/>
</radialGradient>
<radialGradient id="paint34_radial_6_4814" cx="0" cy="0" r="1" gradientUnits="userSpaceOnUse" gradientTransform="translate(774.927 1108.44) rotate(52.5) scale(912.205 681)">
<stop stop-color="#9B9C9E"/>
<stop offset="1" stop-color="#9B9C9E" stop-opacity="0"/>
</radialGradient>
<radialGradient id="paint35_radial_6_4814" cx="0" cy="0" r="1" gradientUnits="userSpaceOnUse" gradientTransform="translate(753.581 1153.51) rotate(55) scale(912.205 680)">
<stop stop-color="#9B9C9E"/>
<stop offset="1" stop-color="#9B9C9E" stop-opacity="0"/>
</radialGradient>
<radialGradient id="paint36_radial_6_4814" cx="0" cy="0" r="1" gradientUnits="userSpaceOnUse" gradientTransform="translate(730.129 1197.82) rotate(57.5) scale(912.205 679)">
<stop stop-color="#9B9C9E"/>
<stop offset="1" stop-color="#9B9C9E" stop-opacity="0"/>
</radialGradient>
<radialGradient id="paint37_radial_6_4814" cx="0" cy="0" r="1" gradientUnits="userSpaceOnUse" gradientTransform="translate(704.606 1241.3) rotate(60) scale(912.205 678)">
<stop stop-color="#9B9C9E"/>
<stop offset="1" stop-color="#9B9C9E" stop-opacity="0"/>
</radialGradient>
<radialGradient id="paint38_radial_6_4814" cx="0" cy="0" r="1" gradientUnits="userSpaceOnUse" gradientTransform="translate(677.054 1283.84) rotate(62.5) scale(912.205 677)">
<stop stop-color="#9B9C9E"/>
<stop offset="1" stop-color="#9B9C9E" stop-opacity="0"/>
</radialGradient>
<radialGradient id="paint39_radial_6_4814" cx="0" cy="0" r="1" gradientUnits="userSpaceOnUse" gradientTransform="translate(647.517 1325.35) rotate(65) scale(912.205 676)">
<stop stop-color="#9B9C9E"/>
<stop offset="1" stop-color="#9B9C9E" stop-opacity="0"/>
</radialGradient>
<radialGradient id="paint40_radial_6_4814" cx="0" cy="0" r="1" gradientUnits="userSpaceOnUse" gradientTransform="translate(616.043 1365.76) rotate(67.5) scale(912.205 675)">
<stop stop-color="#9B9C9E"/>
<stop offset="1" stop-color="#9B9C9E" stop-opacity="0"/>
</radialGradient>
<radialGradient id="paint41_radial_6_4814" cx="0" cy="0" r="1" gradientUnits="userSpaceOnUse" gradientTransform="translate(582.684 1404.98) rotate(70) scale(912.205 674)">
<stop stop-color="#9B9C9E"/>
<stop offset="1" stop-color="#9B9C9E" stop-opacity="0"/>
</radialGradient>
<radialGradient id="paint42_radial_6_4814" cx="0" cy="0" r="1" gradientUnits="userSpaceOnUse" gradientTransform="translate(547.495 1442.92) rotate(72.5) scale(912.205 673)">
<stop stop-color="#9B9C9E"/>
<stop offset="1" stop-color="#9B9C9E" stop-opacity="0"/>
</radialGradient>
<radialGradient id="paint43_radial_6_4814" cx="0" cy="0" r="1" gradientUnits="userSpaceOnUse" gradientTransform="translate(510.537 1479.5) rotate(75) scale(912.205 672)">
<stop stop-color="#9B9C9E"/>
<stop offset="1" stop-color="#9B9C9E" stop-opacity="0"/>
</radialGradient>
<radialGradient id="paint44_radial_6_4814" cx="0" cy="0" r="1" gradientUnits="userSpaceOnUse" gradientTransform="translate(471.87 1514.66) rotate(77.5) scale(912.205 671)">
<stop stop-color="#9B9C9E"/>
<stop offset="1" stop-color="#9B9C9E" stop-opacity="0"/>
</radialGradient>
<radialGradient id="paint45_radial_6_4814" cx="0" cy="0" r="1" gradientUnits="userSpaceOnUse" gradientTransform="translate(431.562 1548.31) rotate(80) scale(912.205 670)">
<stop stop-color="#9B9C9E"/>
<stop offset="1" stop-color="#9B9C9E" stop-opacity="0"/>
</radialGradient>
<radialGradient id="paint46_radial_6_4814" cx="0" cy="0" r="1" gradientUnits="userSpaceOnUse" gradientTransform="translate(389.682 1580.38) rotate(82.5) scale(912.205 669)">
<stop stop-color="#9B9C9E"/>
<stop offset="1" stop-color="#9B9C9E" stop-opacity="0"/>
</radialGradient>
<radialGradient id="paint47_radial_6_4814" cx="0" cy="0" r="1" gradientUnits="userSpaceOnUse" gradientTransform="translate(346.3 1610.82) rotate(85) scale(912.205 668)">
<stop stop-color="#9B9C9E"/>
<stop offset="1" stop-color="#9B9C9E" stop-opacity="0"/>
</radialGradient>
<radialGradient id="paint48_radial_6_4814" cx="0" cy="0" r="1" gradientUnits="userSpaceOnUse" gradientTransform="translate(301.493 1639.55) rotate(87.5) scale(912.205 667)">
<stop stop-color="#9B9C9E"/>
<stop offset="1" stop-color="#9B9C9E" stop-opacity="0"/>
</radialGradient>
<radialGradient id="paint49_radial_6_4814" cx="0" cy="0" r="1" gradientUnits="userSpaceOnUse" gradientTransform="translate(255.338 1666.51) rotate(90) scale(912.205 666)">
<stop stop-color="#9B9C9E"/>
<stop offset="1" stop-color="#9B9C9E" stop-opacity="0"/>
</radialGradient>
</defs>
</svg>
