<svg width="1280" height="832" viewBox="0 0 1280 832" fill="none" xmlns="http://www.w3.org/2000/svg">
<path opacity="0.01" d="M9.11065 320.603C-39.4118 276.147 -79.7179 131.745 147.237 -90.221C430.931 -367.678 754.072 -432.636 1021.56 -323.718C1289.04 -214.801 1210.27 66.27 1146.81 241.786C1083.35 417.301 1273.02 786.534 1588.82 457.329" stroke="url(#paint0_linear_6_6301)" stroke-width="4" stroke-dasharray="7 7"/>
<path opacity="0.0204082" d="M3.91824 319.71C-42.3739 273.276 -75.8543 127.265 160.561 -85.3079C456.081 -351.024 781.075 -402.688 1042.56 -282.82C1304.05 -162.951 1212.55 114.794 1141.2 287.646C1069.85 460.499 1241.76 837.403 1571.66 521.274" stroke="url(#paint1_linear_6_6301)" stroke-width="4" stroke-dasharray="7 7"/>
<path opacity="0.0408163" d="M-1.55747 318.523C-45.5311 270.199 -72.131 122.847 173.258 -79.9657C479.995 -333.482 806.191 -371.788 1061.18 -241.209C1316.16 -110.63 1212.14 163.291 1133.05 333.173C1053.96 503.054 1207.79 886.928 1551.12 584.423" stroke="url(#paint2_linear_6_6301)" stroke-width="4" stroke-dasharray="7 7"/>
<path opacity="0.0612245" d="M-7.30261 317.03C-48.8739 266.908 -68.5511 118.488 185.31 -74.2197C502.637 -315.104 829.384 -340.011 1077.37 -198.983C1325.35 -57.956 1209.04 211.652 1122.38 378.26C1035.72 544.868 1171.2 935 1527.24 646.636" stroke="url(#paint3_linear_6_6301)" stroke-width="4" stroke-dasharray="7 7"/>
<path opacity="0.0816327" d="M-13.3015 315.221C-52.3911 263.396 -65.1162 114.179 196.701 -68.0968C523.972 -295.941 850.621 -307.438 1091.12 -156.244C1331.62 -5.04972 1203.26 259.766 1109.21 422.806C1015.16 585.845 1132.05 981.509 1500.09 707.777" stroke="url(#paint4_linear_6_6301)" stroke-width="4" stroke-dasharray="7 7"/>
<path opacity="0.102041" d="M-19.5385 313.084C-56.072 259.656 -61.8282 109.916 207.415 -61.6238C543.969 -276.048 869.872 -274.148 1102.42 -113.089C1334.96 47.9695 1194.83 307.523 1093.59 466.707C992.35 625.891 1090.43 1026.35 1469.72 767.711" stroke="url(#paint5_linear_6_6301)" stroke-width="4" stroke-dasharray="7 7"/>
<path opacity="0.122449" d="M-25.9976 310.611C-59.9053 255.681 -58.6888 105.692 217.439 -54.8287C562.6 -255.479 887.111 -240.223 1111.25 -69.6208C1335.39 100.981 1183.77 354.814 1075.55 509.863C967.327 664.912 1046.43 1069.43 1436.21 826.307" stroke="url(#paint6_linear_6_6301)" stroke-width="4" stroke-dasharray="7 7"/>
<path opacity="0.142857" d="M-32.6625 307.791C-63.8798 251.464 -55.6993 101.501 226.762 -47.7397C579.838 -234.29 902.318 -205.746 1117.62 -25.9395C1332.92 153.867 1170.12 401.532 1055.14 552.175C940.151 702.818 1000.14 1110.64 1399.62 883.436" stroke="url(#paint7_linear_6_6301)" stroke-width="4" stroke-dasharray="7 7"/>
<path opacity="0.163265" d="M-39.5157 304.617C-67.9831 247.001 -52.8602 97.3373 235.371 -40.3856C595.66 -212.539 915.474 -170.799 1121.52 17.8535C1327.56 206.506 1153.91 447.57 1032.4 593.545C910.884 739.52 951.651 1149.88 1360.05 938.971" stroke="url(#paint8_linear_6_6301)" stroke-width="4" stroke-dasharray="7 7"/>
<path opacity="0.183673" d="M-46.5407 301.081C-72.204 242.284 -50.1727 93.1947 243.258 -32.7953C610.047 -190.283 926.567 -135.467 1122.95 61.6578C1319.34 258.783 1135.19 492.825 1007.39 633.879C879.588 774.933 901.067 1187.08 1317.57 992.79" stroke="url(#paint9_linear_6_6301)" stroke-width="4" stroke-dasharray="7 7"/>
<path opacity="0.204082" d="M-53.719 297.175C-76.5292 237.311 -47.6365 89.0669 250.416 -24.9983C622.981 -167.58 935.587 -99.8333 1121.93 105.372C1308.28 310.578 1114.01 537.192 980.171 673.083C846.335 808.974 848.492 1222.15 1272.27 1044.77" stroke="url(#paint10_linear_6_6301)" stroke-width="4" stroke-dasharray="7 7"/>
<path opacity="0.22449" d="M-61.0333 292.893C-80.9469 232.075 -45.252 84.9476 256.836 -17.0245C634.446 -144.49 942.529 -63.9827 1118.48 148.897C1294.43 361.777 1090.41 580.57 950.801 711.066C811.195 841.561 794.034 1254.99 1224.26 1094.81" stroke="url(#paint11_linear_6_6301)" stroke-width="4" stroke-dasharray="7 7"/>
<path opacity="0.244898" d="M-68.4654 288.23C-85.4445 226.574 -43.0191 80.8307 262.515 -8.90362C644.432 -121.072 947.392 -27.9995 1112.6 192.133C1277.81 412.265 1064.45 622.862 919.345 747.741C774.244 872.619 737.806 1285.54 1173.64 1142.78" stroke="url(#paint12_linear_6_6301)" stroke-width="4" stroke-dasharray="7 7"/>
<path opacity="0.265306" d="M-75.997 283.18C-90.0091 220.805 -40.9371 76.7102 267.448 -0.665705C652.93 -97.3856 950.179 8.03175 1104.33 234.981C1258.48 461.93 1036.19 663.971 885.876 783.021C735.563 902.072 679.921 1313.72 1120.52 1188.58" stroke="url(#paint13_linear_6_6301)" stroke-width="4" stroke-dasharray="7 7"/>
<path opacity="0.285714" d="M-83.6097 277.739C-94.6282 214.763 -39.0055 72.5798 271.633 7.65882C659.932 -73.4924 950.896 44.0266 1093.69 277.344C1236.49 510.661 1005.7 703.803 850.467 816.826C695.234 929.849 620.499 1339.46 1065 1232.11" stroke="url(#paint14_linear_6_6301)" stroke-width="4" stroke-dasharray="7 7"/>
<path opacity="0.306122" d="M-91.2842 271.905C-99.2882 208.447 -37.2226 68.4335 275.071 16.0399C665.437 -49.452 949.556 79.9015 1080.72 319.126C1211.89 558.35 973.051 742.266 813.197 849.074C653.344 955.882 559.662 1362.71 1007.21 1273.27" stroke="url(#paint15_linear_6_6301)" stroke-width="4" stroke-dasharray="7 7"/>
<path opacity="0.326531" d="M-99.002 265.673C-103.976 201.855 -35.5872 64.2653 277.76 24.4473C669.445 -25.3251 946.172 115.573 1065.46 360.232C1184.75 604.891 938.314 779.273 774.147 879.691C609.98 980.109 497.532 1383.39 947.269 1311.96" stroke="url(#paint16_linear_6_6301)" stroke-width="4" stroke-dasharray="7 7"/>
<path opacity="0.346939" d="M-106.744 259.042C-108.679 194.986 -34.0975 60.069 279.705 32.8507C671.958 -1.17219 940.764 150.958 1047.94 400.569C1155.12 650.18 901.568 814.738 733.402 908.603C565.237 1002.47 434.238 1401.46 885.302 1348.11" stroke="url(#paint17_linear_6_6301)" stroke-width="4" stroke-dasharray="7 7"/>
<path opacity="0.367347" d="M-114.491 252.012C-113.383 187.839 -32.7516 55.839 280.907 41.2202C672.981 22.9468 933.354 185.976 1028.22 440.046C1123.09 694.116 862.895 848.58 691.051 935.74C519.207 1022.9 369.907 1416.86 821.439 1381.62" stroke="url(#paint18_linear_6_6301)" stroke-width="4" stroke-dasharray="7 7"/>
<path opacity="0.387755" d="M-122.225 244.58C-118.076 180.414 -31.5475 51.5694 281.373 49.526C672.523 46.9717 923.969 220.545 1006.34 478.574C1088.72 736.603 822.381 880.721 647.185 961.039C471.989 1041.36 304.671 1429.57 755.813 1412.42" stroke="url(#paint19_linear_6_6301)" stroke-width="4" stroke-dasharray="7 7"/>
<path opacity="0.408163" d="M-129.927 236.749C-122.744 172.71 -30.4823 47.2544 281.108 57.7383C670.596 70.8432 912.639 254.586 982.365 516.065C1052.09 777.545 780.115 911.084 601.898 984.435C423.681 1057.79 238.662 1439.53 688.562 1440.43" stroke="url(#paint20_linear_6_6301)" stroke-width="4" stroke-dasharray="7 7"/>
<path opacity="0.428571" d="M-137.576 228.518C-127.374 164.73 -29.5529 42.8884 280.121 65.8279C667.213 94.5023 899.398 288.021 956.345 552.436C1013.29 816.851 736.19 939.6 555.287 1005.87C374.384 1072.14 172.014 1446.71 619.825 1465.59" stroke="url(#paint21_linear_6_6301)" stroke-width="4" stroke-dasharray="7 7"/>
<path opacity="0.44898" d="M-145.156 219.89C-131.954 156.474 -28.7572 38.4662 278.42 73.7661C662.391 117.891 884.285 320.773 928.347 587.603C972.41 854.433 690.7 966.2 507.451 1025.3C324.203 1084.39 104.861 1451.09 549.745 1487.84" stroke="url(#paint22_linear_6_6301)" stroke-width="4" stroke-dasharray="7 7"/>
<path opacity="0.469388" d="M-152.646 210.867C-136.47 147.944 -28.0909 33.9821 276.016 81.5238C656.15 140.951 867.339 352.768 898.437 621.488C929.536 890.208 643.745 990.822 458.493 1042.66C273.241 1094.49 37.342 1452.65 478.467 1507.12" stroke="url(#paint23_linear_6_6301)" stroke-width="4" stroke-dasharray="7 7"/>
<path opacity="0.489796" d="M-160.029 201.453C-140.909 139.142 -27.5515 29.4312 272.92 89.0735C648.51 163.626 848.605 383.931 866.685 654.013C884.765 924.095 595.426 1013.41 408.516 1057.91C221.606 1102.41 -30.4088 1451.37 406.139 1523.38" stroke="url(#paint24_linear_6_6301)" stroke-width="4" stroke-dasharray="7 7"/>
<path opacity="0.510204" d="M-167.287 191.651C-145.259 130.072 -27.1344 24.8082 269.147 96.3873C639.498 185.861 828.132 414.191 833.164 685.104C838.196 956.017 545.847 1033.9 357.625 1071.01C169.404 1108.11 -98.2531 1447.23 332.909 1536.58" stroke="url(#paint25_linear_6_6301)" stroke-width="4" stroke-dasharray="7 7"/>
<path opacity="0.530612" d="M-174.4 181.466C-149.508 120.736 -26.8358 20.1084 264.709 103.438C629.141 207.601 805.97 443.48 797.95 714.692C789.931 985.904 495.113 1052.24 305.928 1081.92C116.744 1111.59 -166.054 1440.24 258.929 1546.69" stroke="url(#paint26_linear_6_6301)" stroke-width="4" stroke-dasharray="7 7"/>
<path opacity="0.55102" d="M-181.353 170.905C-153.642 111.14 -26.6517 15.3271 259.624 110.2C617.468 228.792 782.173 471.729 761.124 742.708C740.076 1013.69 443.333 1068.4 253.534 1090.61C63.7357 1112.82 -233.674 1430.4 184.35 1553.67" stroke="url(#paint27_linear_6_6301)" stroke-width="4" stroke-dasharray="7 7"/>
<path opacity="0.571429" d="M-188.126 159.973C-157.65 101.286 -26.5776 10.4594 253.906 116.647C604.51 249.382 756.798 498.874 722.769 769.088C688.739 1039.3 390.617 1082.32 200.553 1097.05C10.4886 1111.78 -300.977 1417.71 109.327 1557.49" stroke="url(#paint28_linear_6_6301)" stroke-width="4" stroke-dasharray="7 7"/>
<path opacity="0.591837" d="M-194.703 148.676C-161.52 91.1803 -26.6084 5.5012 247.575 122.754C590.304 269.321 729.906 524.853 682.969 793.772C636.031 1062.69 337.077 1093.98 147.095 1101.22C-42.8863 1108.47 -367.825 1402.18 34.013 1558.14" stroke="url(#paint29_linear_6_6301)" stroke-width="4" stroke-dasharray="7 7"/>
<path opacity="0.612245" d="M-201.067 137.025C-165.241 80.8285 -26.7402 0.448623 240.649 128.498C574.885 288.559 701.559 549.606 641.812 816.702C582.065 1083.8 282.824 1103.33 93.2723 1103.1C-96.2798 1102.87 -434.086 1383.83 -41.4379 1555.61" stroke="url(#paint30_linear_6_6301)" stroke-width="4" stroke-dasharray="7 7"/>
<path opacity="0.632653" d="M-207.203 125.025C-168.8 70.2357 -26.9675 -4.70282 233.148 133.853C558.292 307.048 671.822 573.074 599.389 837.825C526.956 1102.58 227.975 1110.35 39.1972 1102.67C-149.581 1095 -499.624 1362.68 -116.871 1549.9" stroke="url(#paint31_linear_6_6301)" stroke-width="4" stroke-dasharray="7 7"/>
<path opacity="0.653061" d="M-213.093 112.686C-172.188 59.4089 -27.2851 -9.9564 225.093 138.799C540.566 324.743 640.763 595.204 555.792 857.091C470.822 1118.98 172.644 1115.01 -15.0176 1099.93C-202.679 1084.84 -564.307 1338.76 -192.132 1540.99" stroke="url(#paint32_linear_6_6301)" stroke-width="4" stroke-dasharray="7 7"/>
<path opacity="0.673469" d="M-218.722 100.018C-175.393 48.3543 -27.6873 -15.3161 216.507 143.313C521.75 341.599 608.453 615.944 511.117 874.454C413.782 1132.96 116.947 1117.3 -69.2589 1094.86C-255.465 1072.42 -628.004 1312.12 -267.066 1528.91" stroke="url(#paint33_linear_6_6301)" stroke-width="4" stroke-dasharray="7 7"/>
<path opacity="0.693878" d="M-224.076 87.0314C-178.406 37.0794 -28.1696 -20.785 207.412 147.374C501.889 357.573 574.962 635.245 465.459 889.872C355.956 1144.5 61.0003 1117.21 -123.415 1087.47C-307.831 1057.74 -690.587 1282.77 -341.523 1513.65" stroke="url(#paint34_linear_6_6301)" stroke-width="4" stroke-dasharray="7 7"/>
<path opacity="0.714286" d="M-229.14 73.7368C-181.215 25.5917 -28.7257 -26.3661 197.832 150.963C481.03 372.624 540.366 653.06 418.917 903.307C297.467 1153.55 4.92082 1114.72 -177.373 1077.77C-359.668 1040.82 -751.929 1250.78 -415.348 1495.25" stroke="url(#paint35_linear_6_6301)" stroke-width="4" stroke-dasharray="7 7"/>
<path opacity="0.734694" d="M-233.9 60.1456C-183.812 13.8994 -29.3503 -32.0625 187.792 154.06C459.221 386.714 504.741 669.348 371.588 914.726C238.436 1160.1 -51.1752 1109.83 -231.022 1065.75C-410.87 1021.68 -811.906 1216.18 -488.393 1473.73" stroke="url(#paint36_linear_6_6301)" stroke-width="4" stroke-dasharray="7 7"/>
<path opacity="0.755102" d="M-238.343 46.2699C-186.187 2.01054 -30.0369 -37.8768 177.318 156.649C436.512 399.806 468.164 684.069 323.577 924.098C178.989 1164.13 -107.17 1102.53 -284.25 1051.44C-461.33 1000.35 -870.397 1179.03 -560.508 1449.11" stroke="url(#paint37_linear_6_6301)" stroke-width="4" stroke-dasharray="7 7"/>
<path opacity="0.77551" d="M-242.457 32.1224C-188.333 -10.0657 -30.7803 -43.8111 166.435 158.712C412.955 411.865 430.715 697.186 274.981 931.397C119.248 1165.61 -162.949 1092.85 -336.948 1034.85C-510.947 976.855 -927.283 1139.4 -631.547 1421.44" stroke="url(#paint38_linear_6_6301)" stroke-width="4" stroke-dasharray="7 7"/>
<path opacity="0.795918" d="M-246.228 17.716C-190.239 -22.3203 -31.574 -49.8677 155.171 160.233C388.603 422.86 392.475 708.666 225.906 936.603C59.3373 1164.54 -218.396 1080.77 -389.006 1016C-559.617 951.234 -982.45 1097.35 -701.365 1390.77" stroke="url(#paint39_linear_6_6301)" stroke-width="4" stroke-dasharray="7 7"/>
<path opacity="0.816327" d="M-249.647 3.06421C-191.899 -34.7441 -32.4124 -56.0488 143.553 161.198C363.509 432.758 353.524 718.478 176.453 939.697C-0.61847 1160.92 -273.397 1066.33 -440.319 994.927C-607.241 923.522 -1035.79 1052.94 -769.821 1357.14" stroke="url(#paint40_linear_6_6301)" stroke-width="4" stroke-dasharray="7 7"/>
<path opacity="0.836735" d="M-252.701 -11.8185C-193.305 -47.3267 -33.2886 -62.3555 131.608 161.595C337.73 441.532 313.948 726.598 126.726 940.667C-60.495 1154.74 -327.838 1049.54 -490.779 971.652C-653.72 893.765 -1087.18 1006.25 -836.776 1320.6" stroke="url(#paint41_linear_6_6301)" stroke-width="4" stroke-dasharray="7 7"/>
<path opacity="0.857143" d="M-255.381 -26.918C-194.45 -60.0584 -34.1971 -68.7895 119.367 161.409C311.321 449.157 273.829 733.002 76.8297 939.504C-120.169 1146.01 -381.608 1030.42 -540.284 946.213C-698.96 862.007 -1136.53 957.364 -902.094 1281.23" stroke="url(#paint42_linear_6_6301)" stroke-width="4" stroke-dasharray="7 7"/>
<path opacity="0.877551" d="M-257.678 -42.2193C-195.328 -72.9287 -35.1311 -75.3519 106.857 160.631C284.342 455.609 233.252 737.67 26.8667 936.204C-179.519 1134.74 -434.595 1009 -588.731 918.652C-742.867 828.301 -1183.74 906.355 -965.643 1239.08" stroke="url(#paint43_linear_6_6301)" stroke-width="4" stroke-dasharray="7 7"/>
<path opacity="0.897959" d="M-259.583 -57.7069C-195.933 -85.9268 -36.0848 -82.0433 94.1077 159.25C256.848 460.866 192.302 740.586 -23.0596 930.766C-238.421 1120.95 -486.692 985.32 -636.022 889.01C-785.352 792.7 -1228.71 853.314 -1027.29 1194.23" stroke="url(#paint44_linear_6_6301)" stroke-width="4" stroke-dasharray="7 7"/>
<path opacity="0.918367" d="M-261.088 -73.3656C-196.26 -99.0422 -37.0517 -88.8648 81.1497 157.257C228.901 464.91 151.065 741.738 -72.846 923.194C-296.757 1104.65 -537.791 959.411 -682.059 857.337C-826.326 755.263 -1271.35 798.331 -1086.92 1146.76" stroke="url(#paint45_linear_6_6301)" stroke-width="4" stroke-dasharray="7 7"/>
<path opacity="0.938776" d="M-262.187 -89.1792C-196.303 -112.264 -38.0252 -95.8165 68.0127 154.646C200.56 467.725 109.627 741.116 -122.39 913.496C-354.406 1085.88 -587.788 931.317 -726.747 823.684C-865.706 716.051 -1311.56 741.5 -1144.41 1096.75" stroke="url(#paint46_linear_6_6301)" stroke-width="4" stroke-dasharray="7 7"/>
<path opacity="0.959184" d="M-262.872 -105.131C-196.058 -125.579 -38.9999 -102.898 54.7264 151.41C171.884 469.296 68.073 738.715 -171.59 901.686C-411.253 1064.66 -636.581 901.084 -769.997 788.107C-903.412 675.13 -1349.28 682.919 -1199.63 1044.28" stroke="url(#paint47_linear_6_6301)" stroke-width="4" stroke-dasharray="7 7"/>
<path opacity="0.979592" d="M-263.138 -121.205C-195.523 -138.978 -39.9687 -110.11 41.3219 147.544C142.935 469.612 26.4894 734.533 -220.346 887.778C-467.181 1041.02 -684.071 868.764 -811.718 750.666C-939.365 632.567 -1384.42 622.689 -1252.49 989.46" stroke="url(#paint48_linear_6_6301)" stroke-width="4" stroke-dasharray="7 7"/>
<path d="M-262.981 -137.385C-194.692 -152.449 -40.9255 -117.452 27.8296 143.044C113.773 468.664 -15.0383 728.57 -268.558 871.795C-522.077 1015.02 -730.162 834.41 -851.826 711.423C-973.491 588.436 -1416.91 560.915 -1302.87 932.375" stroke="url(#paint49_linear_6_6301)" stroke-width="4" stroke-dasharray="7 7"/>
<defs>
<linearGradient id="paint0_linear_6_6301" x1="296.406" y1="-225.648" x2="1213.58" y2="796.72" gradientUnits="userSpaceOnUse">
<stop stop-color="#402FFF"/>
<stop offset="1" stop-color="#402FFF" stop-opacity="0"/>
</linearGradient>
<linearGradient id="paint1_linear_6_6301" x1="315.464" y1="-214.565" x2="1186.29" y2="841.659" gradientUnits="userSpaceOnUse">
<stop stop-color="#402FFF"/>
<stop offset="1" stop-color="#402FFF" stop-opacity="0"/>
</linearGradient>
<linearGradient id="paint2_linear_6_6301" x1="333.577" y1="-202.83" x2="1157.28" y2="885.158" gradientUnits="userSpaceOnUse">
<stop stop-color="#402FFF"/>
<stop offset="1" stop-color="#402FFF" stop-opacity="0"/>
</linearGradient>
<linearGradient id="paint3_linear_6_6301" x1="350.717" y1="-190.483" x2="1126.61" y2="927.229" gradientUnits="userSpaceOnUse">
<stop stop-color="#402FFF"/>
<stop offset="1" stop-color="#402FFF" stop-opacity="0"/>
</linearGradient>
<linearGradient id="paint4_linear_6_6301" x1="366.86" y1="-177.564" x2="1094.33" y2="967.882" gradientUnits="userSpaceOnUse">
<stop stop-color="#402FFF"/>
<stop offset="1" stop-color="#402FFF" stop-opacity="0"/>
</linearGradient>
<linearGradient id="paint5_linear_6_6301" x1="381.984" y1="-164.113" x2="1060.48" y2="1007.13" gradientUnits="userSpaceOnUse">
<stop stop-color="#402FFF"/>
<stop offset="1" stop-color="#402FFF" stop-opacity="0"/>
</linearGradient>
<linearGradient id="paint6_linear_6_6301" x1="396.067" y1="-150.173" x2="1025.1" y2="1044.97" gradientUnits="userSpaceOnUse">
<stop stop-color="#402FFF"/>
<stop offset="1" stop-color="#402FFF" stop-opacity="0"/>
</linearGradient>
<linearGradient id="paint7_linear_6_6301" x1="409.091" y1="-135.786" x2="988.197" y2="1081.42" gradientUnits="userSpaceOnUse">
<stop stop-color="#402FFF"/>
<stop offset="1" stop-color="#402FFF" stop-opacity="0"/>
</linearGradient>
<linearGradient id="paint8_linear_6_6301" x1="421.04" y1="-120.995" x2="949.799" y2="1116.46" gradientUnits="userSpaceOnUse">
<stop stop-color="#402FFF"/>
<stop offset="1" stop-color="#402FFF" stop-opacity="0"/>
</linearGradient>
<linearGradient id="paint9_linear_6_6301" x1="431.899" y1="-105.845" x2="909.915" y2="1150.1" gradientUnits="userSpaceOnUse">
<stop stop-color="#402FFF"/>
<stop offset="1" stop-color="#402FFF" stop-opacity="0"/>
</linearGradient>
<linearGradient id="paint10_linear_6_6301" x1="441.656" y1="-90.3785" x2="868.553" y2="1182.31" gradientUnits="userSpaceOnUse">
<stop stop-color="#402FFF"/>
<stop offset="1" stop-color="#402FFF" stop-opacity="0"/>
</linearGradient>
<linearGradient id="paint11_linear_6_6301" x1="450.302" y1="-74.6422" x2="825.715" y2="1213.09" gradientUnits="userSpaceOnUse">
<stop stop-color="#402FFF"/>
<stop offset="1" stop-color="#402FFF" stop-opacity="0"/>
</linearGradient>
<linearGradient id="paint12_linear_6_6301" x1="457.827" y1="-58.6804" x2="781.403" y2="1242.4" gradientUnits="userSpaceOnUse">
<stop stop-color="#402FFF"/>
<stop offset="1" stop-color="#402FFF" stop-opacity="0"/>
</linearGradient>
<linearGradient id="paint13_linear_6_6301" x1="464.227" y1="-42.5386" x2="735.616" y2="1270.2" gradientUnits="userSpaceOnUse">
<stop stop-color="#402FFF"/>
<stop offset="1" stop-color="#402FFF" stop-opacity="0"/>
</linearGradient>
<linearGradient id="paint14_linear_6_6301" x1="469.498" y1="-26.2626" x2="688.354" y2="1296.46" gradientUnits="userSpaceOnUse">
<stop stop-color="#402FFF"/>
<stop offset="1" stop-color="#402FFF" stop-opacity="0"/>
</linearGradient>
<linearGradient id="paint15_linear_6_6301" x1="473.64" y1="-9.8978" x2="639.615" y2="1321.13" gradientUnits="userSpaceOnUse">
<stop stop-color="#402FFF"/>
<stop offset="1" stop-color="#402FFF" stop-opacity="0"/>
</linearGradient>
<linearGradient id="paint16_linear_6_6301" x1="476.652" y1="6.50998" x2="589.401" y2="1344.15" gradientUnits="userSpaceOnUse">
<stop stop-color="#402FFF"/>
<stop offset="1" stop-color="#402FFF" stop-opacity="0"/>
</linearGradient>
<linearGradient id="paint17_linear_6_6301" x1="478.538" y1="22.9151" x2="537.716" y2="1365.45" gradientUnits="userSpaceOnUse">
<stop stop-color="#402FFF"/>
<stop offset="1" stop-color="#402FFF" stop-opacity="0"/>
</linearGradient>
<linearGradient id="paint18_linear_6_6301" x1="479.304" y1="39.2724" x2="484.568" y2="1384.95" gradientUnits="userSpaceOnUse">
<stop stop-color="#402FFF"/>
<stop offset="1" stop-color="#402FFF" stop-opacity="0"/>
</linearGradient>
<linearGradient id="paint19_linear_6_6301" x1="478.955" y1="55.5368" x2="429.969" y2="1402.59" gradientUnits="userSpaceOnUse">
<stop stop-color="#402FFF"/>
<stop offset="1" stop-color="#402FFF" stop-opacity="0"/>
</linearGradient>
<linearGradient id="paint20_linear_6_6301" x1="477.503" y1="71.6634" x2="373.939" y2="1418.26" gradientUnits="userSpaceOnUse">
<stop stop-color="#402FFF"/>
<stop offset="1" stop-color="#402FFF" stop-opacity="0"/>
</linearGradient>
<linearGradient id="paint21_linear_6_6301" x1="474.96" y1="87.6079" x2="316.504" y2="1431.88" gradientUnits="userSpaceOnUse">
<stop stop-color="#402FFF"/>
<stop offset="1" stop-color="#402FFF" stop-opacity="0"/>
</linearGradient>
<linearGradient id="paint22_linear_6_6301" x1="471.337" y1="103.327" x2="257.697" y2="1443.33" gradientUnits="userSpaceOnUse">
<stop stop-color="#402FFF"/>
<stop offset="1" stop-color="#402FFF" stop-opacity="0"/>
</linearGradient>
<linearGradient id="paint23_linear_6_6301" x1="466.651" y1="118.777" x2="197.563" y2="1452.52" gradientUnits="userSpaceOnUse">
<stop stop-color="#402FFF"/>
<stop offset="1" stop-color="#402FFF" stop-opacity="0"/>
</linearGradient>
<linearGradient id="paint24_linear_6_6301" x1="460.92" y1="133.915" x2="136.156" y2="1459.33" gradientUnits="userSpaceOnUse">
<stop stop-color="#402FFF"/>
<stop offset="1" stop-color="#402FFF" stop-opacity="0"/>
</linearGradient>
<linearGradient id="paint25_linear_6_6301" x1="454.163" y1="148.701" x2="73.5427" y2="1463.64" gradientUnits="userSpaceOnUse">
<stop stop-color="#402FFF"/>
<stop offset="1" stop-color="#402FFF" stop-opacity="0"/>
</linearGradient>
<linearGradient id="paint26_linear_6_6301" x1="446.402" y1="163.093" x2="9.80218" y2="1465.33" gradientUnits="userSpaceOnUse">
<stop stop-color="#402FFF"/>
<stop offset="1" stop-color="#402FFF" stop-opacity="0"/>
</linearGradient>
<linearGradient id="paint27_linear_6_6301" x1="437.66" y1="177.051" x2="-54.973" y2="1464.29" gradientUnits="userSpaceOnUse">
<stop stop-color="#402FFF"/>
<stop offset="1" stop-color="#402FFF" stop-opacity="0"/>
</linearGradient>
<linearGradient id="paint28_linear_6_6301" x1="427.962" y1="190.536" x2="-120.675" y2="1460.37" gradientUnits="userSpaceOnUse">
<stop stop-color="#402FFF"/>
<stop offset="1" stop-color="#402FFF" stop-opacity="0"/>
</linearGradient>
<linearGradient id="paint29_linear_6_6301" x1="417.335" y1="203.512" x2="-187.18" y2="1453.48" gradientUnits="userSpaceOnUse">
<stop stop-color="#402FFF"/>
<stop offset="1" stop-color="#402FFF" stop-opacity="0"/>
</linearGradient>
<linearGradient id="paint30_linear_6_6301" x1="405.807" y1="215.94" x2="-254.349" y2="1443.49" gradientUnits="userSpaceOnUse">
<stop stop-color="#402FFF"/>
<stop offset="1" stop-color="#402FFF" stop-opacity="0"/>
</linearGradient>
<linearGradient id="paint31_linear_6_6301" x1="393.41" y1="227.785" x2="-322.026" y2="1430.28" gradientUnits="userSpaceOnUse">
<stop stop-color="#402FFF"/>
<stop offset="1" stop-color="#402FFF" stop-opacity="0"/>
</linearGradient>
<linearGradient id="paint32_linear_6_6301" x1="380.173" y1="239.014" x2="-390.04" y2="1413.75" gradientUnits="userSpaceOnUse">
<stop stop-color="#402FFF"/>
<stop offset="1" stop-color="#402FFF" stop-opacity="0"/>
</linearGradient>
<linearGradient id="paint33_linear_6_6301" x1="366.132" y1="249.594" x2="-458.199" y2="1393.81" gradientUnits="userSpaceOnUse">
<stop stop-color="#402FFF"/>
<stop offset="1" stop-color="#402FFF" stop-opacity="0"/>
</linearGradient>
<linearGradient id="paint34_linear_6_6301" x1="351.319" y1="259.492" x2="-526.299" y2="1370.38" gradientUnits="userSpaceOnUse">
<stop stop-color="#402FFF"/>
<stop offset="1" stop-color="#402FFF" stop-opacity="0"/>
</linearGradient>
<linearGradient id="paint35_linear_6_6301" x1="335.771" y1="268.679" x2="-594.12" y2="1343.38" gradientUnits="userSpaceOnUse">
<stop stop-color="#402FFF"/>
<stop offset="1" stop-color="#402FFF" stop-opacity="0"/>
</linearGradient>
<linearGradient id="paint36_linear_6_6301" x1="319.526" y1="277.126" x2="-661.428" y2="1312.77" gradientUnits="userSpaceOnUse">
<stop stop-color="#402FFF"/>
<stop offset="1" stop-color="#402FFF" stop-opacity="0"/>
</linearGradient>
<linearGradient id="paint37_linear_6_6301" x1="302.621" y1="284.807" x2="-727.973" y2="1278.52" gradientUnits="userSpaceOnUse">
<stop stop-color="#402FFF"/>
<stop offset="1" stop-color="#402FFF" stop-opacity="0"/>
</linearGradient>
<linearGradient id="paint38_linear_6_6301" x1="285.097" y1="291.696" x2="-793.501" y2="1240.62" gradientUnits="userSpaceOnUse">
<stop stop-color="#402FFF"/>
<stop offset="1" stop-color="#402FFF" stop-opacity="0"/>
</linearGradient>
<linearGradient id="paint39_linear_6_6301" x1="266.993" y1="297.768" x2="-857.744" y2="1199.08" gradientUnits="userSpaceOnUse">
<stop stop-color="#402FFF"/>
<stop offset="1" stop-color="#402FFF" stop-opacity="0"/>
</linearGradient>
<linearGradient id="paint40_linear_6_6301" x1="248.351" y1="303.003" x2="-920.435" y2="1153.95" gradientUnits="userSpaceOnUse">
<stop stop-color="#402FFF"/>
<stop offset="1" stop-color="#402FFF" stop-opacity="0"/>
</linearGradient>
<linearGradient id="paint41_linear_6_6301" x1="229.214" y1="307.38" x2="-981.301" y2="1105.29" gradientUnits="userSpaceOnUse">
<stop stop-color="#402FFF"/>
<stop offset="1" stop-color="#402FFF" stop-opacity="0"/>
</linearGradient>
<linearGradient id="paint42_linear_6_6301" x1="209.625" y1="310.879" x2="-1040.07" y2="1053.21" gradientUnits="userSpaceOnUse">
<stop stop-color="#402FFF"/>
<stop offset="1" stop-color="#402FFF" stop-opacity="0"/>
</linearGradient>
<linearGradient id="paint43_linear_6_6301" x1="189.627" y1="313.485" x2="-1096.49" y2="997.823" gradientUnits="userSpaceOnUse">
<stop stop-color="#402FFF"/>
<stop offset="1" stop-color="#402FFF" stop-opacity="0"/>
</linearGradient>
<linearGradient id="paint44_linear_6_6301" x1="169.264" y1="315.182" x2="-1150.29" y2="939.289" gradientUnits="userSpaceOnUse">
<stop stop-color="#402FFF"/>
<stop offset="1" stop-color="#402FFF" stop-opacity="0"/>
</linearGradient>
<linearGradient id="paint45_linear_6_6301" x1="148.583" y1="315.957" x2="-1201.25" y2="877.786" gradientUnits="userSpaceOnUse">
<stop stop-color="#402FFF"/>
<stop offset="1" stop-color="#402FFF" stop-opacity="0"/>
</linearGradient>
<linearGradient id="paint46_linear_6_6301" x1="127.627" y1="315.798" x2="-1249.13" y2="813.52" gradientUnits="userSpaceOnUse">
<stop stop-color="#402FFF"/>
<stop offset="1" stop-color="#402FFF" stop-opacity="0"/>
</linearGradient>
<linearGradient id="paint47_linear_6_6301" x1="106.443" y1="314.696" x2="-1293.74" y2="746.718" gradientUnits="userSpaceOnUse">
<stop stop-color="#402FFF"/>
<stop offset="1" stop-color="#402FFF" stop-opacity="0"/>
</linearGradient>
<linearGradient id="paint48_linear_6_6301" x1="85.0759" y1="312.643" x2="-1334.91" y2="677.628" gradientUnits="userSpaceOnUse">
<stop stop-color="#402FFF"/>
<stop offset="1" stop-color="#402FFF" stop-opacity="0"/>
</linearGradient>
<linearGradient id="paint49_linear_6_6301" x1="63.573" y1="309.633" x2="-1372.48" y2="606.514" gradientUnits="userSpaceOnUse">
<stop stop-color="#402FFF"/>
<stop offset="1" stop-color="#402FFF" stop-opacity="0"/>
</linearGradient>
</defs>
</svg>
