<svg width="947" height="1070" viewBox="0 0 947 1070" fill="none" xmlns="http://www.w3.org/2000/svg">
<path opacity="0.01" d="M976.479 38.1107C828.733 77.2262 585.695 147.725 309.706 -149.099C33.7162 -445.922 -66.7044 -611.654 -375.695 -512.96" stroke="url(#paint0_radial_30_1974)" stroke-width="3" stroke-dasharray="3 3"/>
<path opacity="0.0204082" d="M988.206 64.8541C838.766 98.0154 592.648 158.703 331.222 -148.285C69.7962 -455.273 -22.5585 -624.555 -335.9 -538.357" stroke="url(#paint1_radial_30_1974)" stroke-width="3" stroke-dasharray="3 3"/>
<path opacity="0.0408163" d="M998.5 92.3119C847.646 119.459 598.907 170.225 352.481 -146.314C106.056 -462.853 21.9124 -635.346 -295.194 -561.804" stroke="url(#paint2_radial_30_1974)" stroke-width="3" stroke-dasharray="3 3"/>
<path opacity="0.0612245" d="M1007.33 120.425C855.341 141.508 604.446 182.26 373.427 -143.199C142.409 -468.657 66.6068 -644.021 -253.67 -583.27" stroke="url(#paint3_radial_30_1974)" stroke-width="3" stroke-dasharray="3 3"/>
<path opacity="0.0816327" d="M1014.66 149.134C861.825 164.115 609.242 194.779 394.007 -138.955C178.771 -472.689 111.423 -650.576 -211.425 -602.727" stroke="url(#paint4_radial_30_1974)" stroke-width="3" stroke-dasharray="3 3"/>
<path opacity="0.102041" d="M1020.48 178.377C867.072 187.231 613.273 207.75 414.166 -133.6C215.058 -474.951 156.26 -655.012 -168.554 -620.153" stroke="url(#paint5_radial_30_1974)" stroke-width="3" stroke-dasharray="3 3"/>
<path opacity="0.122449" d="M1024.74 208.092C871.058 210.803 616.518 221.143 433.851 -127.154C251.185 -475.452 201.017 -657.334 -125.157 -635.529" stroke="url(#paint6_radial_30_1974)" stroke-width="3" stroke-dasharray="3 3"/>
<path opacity="0.142857" d="M1027.44 238.216C873.764 234.782 618.957 234.925 453.013 -119.64C287.069 -474.204 245.593 -657.553 -81.33 -648.839" stroke="url(#paint7_radial_30_1974)" stroke-width="3" stroke-dasharray="3 3"/>
<path opacity="0.163265" d="M1028.55 268.687C875.171 259.114 620.572 249.061 471.599 -111.08C322.625 -471.222 289.888 -655.68 -37.1725 -660.073" stroke="url(#paint8_radial_30_1974)" stroke-width="3" stroke-dasharray="3 3"/>
<path opacity="0.183673" d="M1028.07 299.438C875.264 283.746 621.348 263.519 489.561 -101.502C357.773 -466.523 333.803 -651.734 7.21699 -669.223" stroke="url(#paint9_radial_30_1974)" stroke-width="3" stroke-dasharray="3 3"/>
<path opacity="0.204082" d="M1025.97 330.405C874.028 308.625 621.269 278.264 506.851 -90.933C392.432 -460.13 377.241 -645.737 51.7394 -676.287" stroke="url(#paint10_radial_30_1974)" stroke-width="3" stroke-dasharray="3 3"/>
<path opacity="0.22449" d="M1022.25 361.522C871.455 333.696 620.324 293.259 523.423 -79.4035C426.521 -452.066 420.104 -637.713 96.2958 -681.265" stroke="url(#paint11_radial_30_1974)" stroke-width="3" stroke-dasharray="3 3"/>
<path opacity="0.244898" d="M1016.91 392.725C867.535 358.906 618.501 308.471 539.232 -66.9451C459.963 -442.361 462.297 -627.693 140.788 -684.163" stroke="url(#paint12_radial_30_1974)" stroke-width="3" stroke-dasharray="3 3"/>
<path opacity="0.265306" d="M1009.93 423.947C862.263 384.2 615.79 323.862 554.234 -53.5918C492.679 -431.046 503.727 -615.709 185.118 -684.99" stroke="url(#paint13_radial_30_1974)" stroke-width="3" stroke-dasharray="3 3"/>
<path opacity="0.285714" d="M1001.32 455.122C855.636 409.522 612.183 339.397 568.39 -39.3789C524.596 -418.154 544.302 -601.798 229.188 -683.758" stroke="url(#paint14_radial_30_1974)" stroke-width="3" stroke-dasharray="3 3"/>
<path opacity="0.306122" d="M1021.95 501.815C878.511 450.448 607.675 355.038 581.657 -24.3429C555.64 -403.723 583.933 -586 272.902 -680.485" stroke="url(#paint15_radial_30_1974)" stroke-width="3" stroke-dasharray="3 3"/>
<path opacity="0.326531" d="M1033.57 543.746C892.647 486.71 602.261 370.748 594 -8.52282C585.739 -387.794 622.531 -568.361 316.165 -675.191" stroke="url(#paint16_radial_30_1974)" stroke-width="3" stroke-dasharray="3 3"/>
<path opacity="0.346939" d="M1032.83 589.83C894.684 527.232 595.939 386.492 605.382 8.04174C614.825 -370.408 660.011 -548.927 358.883 -667.901" stroke="url(#paint17_radial_30_1974)" stroke-width="3" stroke-dasharray="3 3"/>
<path opacity="0.367347" d="M988.843 603.516C853.73 535.474 588.708 402.231 615.768 25.3092C642.829 -351.613 696.291 -527.749 400.962 -658.642" stroke="url(#paint18_radial_30_1974)" stroke-width="3" stroke-dasharray="3 3"/>
<path opacity="0.387755" d="M962.934 621.403C831.106 548.046 580.568 417.929 625.128 43.2368C669.687 -331.455 731.29 -504.882 442.312 -647.448" stroke="url(#paint19_radial_30_1974)" stroke-width="3" stroke-dasharray="3 3"/>
<path opacity="0.408163" d="M915.886 637.527C787.588 558.991 571.523 433.548 633.43 61.7806C695.338 -309.987 764.931 -480.384 482.843 -634.353" stroke="url(#paint20_radial_30_1974)" stroke-width="3" stroke-dasharray="3 3"/>
<path opacity="0.428571" d="M896.144 666.553C771.613 582.987 561.577 449.052 640.649 80.8958C719.721 -287.26 797.14 -454.313 522.468 -619.397" stroke="url(#paint21_radial_30_1974)" stroke-width="3" stroke-dasharray="3 3"/>
<path opacity="0.44898" d="M874.886 695.018C754.353 606.579 550.737 464.404 646.758 100.536C742.779 -263.332 827.844 -426.734 561.102 -602.623" stroke="url(#paint22_radial_30_1974)" stroke-width="3" stroke-dasharray="3 3"/>
<path opacity="0.469388" d="M852.139 722.863C735.828 629.716 539.01 479.568 651.734 120.654C764.458 -238.259 856.977 -397.713 598.662 -584.075" stroke="url(#paint23_radial_30_1974)" stroke-width="3" stroke-dasharray="3 3"/>
<path opacity="0.489796" d="M827.933 750.028C716.06 652.347 526.406 494.508 655.556 141.203C784.706 -212.102 884.473 -367.318 635.066 -563.804" stroke="url(#paint24_radial_30_1974)" stroke-width="3" stroke-dasharray="3 3"/>
<path opacity="0.510204" d="M802.303 776.454C695.074 674.423 512.936 509.189 658.207 162.133C803.477 -184.922 910.27 -335.621 670.237 -541.861" stroke="url(#paint25_radial_30_1974)" stroke-width="3" stroke-dasharray="3 3"/>
<path opacity="0.530612" d="M775.283 802.085C672.897 695.895 498.614 523.575 659.668 183.396C820.723 -156.783 934.311 -302.694 704.099 -518.301" stroke="url(#paint26_radial_30_1974)" stroke-width="3" stroke-dasharray="3 3"/>
<path opacity="0.55102" d="M746.912 826.866C649.559 716.715 483.454 537.632 659.929 204.941C836.403 -127.75 956.542 -268.613 736.58 -493.183" stroke="url(#paint27_radial_30_1974)" stroke-width="3" stroke-dasharray="3 3"/>
<path opacity="0.571429" d="M717.231 850.742C625.091 736.836 467.473 551.327 658.976 226.718C850.479 -97.8901 976.911 -233.456 767.609 -466.567" stroke="url(#paint28_radial_30_1974)" stroke-width="3" stroke-dasharray="3 3"/>
<path opacity="0.591837" d="M686.284 873.662C599.527 756.215 450.688 564.625 656.801 248.677C862.914 -67.2715 995.373 -197.302 797.121 -438.517" stroke="url(#paint29_radial_30_1974)" stroke-width="3" stroke-dasharray="3 3"/>
<path opacity="0.612245" d="M654.117 895.577C572.903 774.808 433.119 577.497 653.397 270.767C873.676 -35.9634 1011.88 -160.232 825.052 -409.099" stroke="url(#paint30_radial_30_1974)" stroke-width="3" stroke-dasharray="3 3"/>
<path opacity="0.632653" d="M620.778 916.437C545.256 792.572 414.786 589.909 648.762 292.936C882.737 -4.03664 1026.41 -122.33 851.34 -378.382" stroke="url(#paint31_radial_30_1974)" stroke-width="3" stroke-dasharray="3 3"/>
<path opacity="0.653061" d="M586.317 936.197C516.628 809.466 395.714 601.83 642.892 315.134C890.071 28.4371 1038.91 -83.6777 875.931 -346.435" stroke="url(#paint32_radial_30_1974)" stroke-width="3" stroke-dasharray="3 3"/>
<path opacity="0.673469" d="M550.787 954.812C487.059 825.453 375.924 613.233 635.79 337.309C895.656 61.3855 1049.35 -44.3617 898.77 -313.332" stroke="url(#paint33_radial_30_1974)" stroke-width="3" stroke-dasharray="3 3"/>
<path opacity="0.693878" d="M514.243 972.241C456.593 840.495 355.443 624.087 627.459 359.411C899.474 94.7353 1057.71 -4.46792 919.808 -279.147" stroke="url(#paint34_radial_30_1974)" stroke-width="3" stroke-dasharray="3 3"/>
<path opacity="0.714286" d="M476.742 988.444C425.276 854.557 334.297 634.366 617.904 381.39C901.511 128.413 1063.97 35.9169 938.999 -243.957" stroke="url(#paint35_radial_30_1974)" stroke-width="3" stroke-dasharray="3 3"/>
<path opacity="0.734694" d="M438.342 1003.38C393.154 867.606 312.514 644.043 607.134 403.194C901.754 162.344 1068.11 76.7049 956.3 -207.84" stroke="url(#paint36_radial_30_1974)" stroke-width="3" stroke-dasharray="3 3"/>
<path opacity="0.755102" d="M399.103 1017.03C360.275 879.61 290.123 653.093 595.16 424.774C900.196 196.455 1070.11 117.808 971.673 -170.874" stroke="url(#paint37_radial_30_1974)" stroke-width="3" stroke-dasharray="3 3"/>
<path opacity="0.77551" d="M359.087 1029.34C326.691 890.539 267.155 661.491 581.994 446.081C896.833 230.67 1069.97 159.138 985.083 -133.142" stroke="url(#paint38_radial_30_1974)" stroke-width="3" stroke-dasharray="3 3"/>
<path opacity="0.795918" d="M318.356 1040.29C292.451 900.367 243.641 669.216 567.653 467.066C891.665 264.916 1067.68 200.605 996.501 -94.7237" stroke="url(#paint39_radial_30_1974)" stroke-width="3" stroke-dasharray="3 3"/>
<path opacity="0.816327" d="M276.977 1049.85C257.608 909.067 219.613 676.245 552.154 487.682C884.694 299.118 1063.24 242.123 1005.9 -55.7038" stroke="url(#paint40_radial_30_1974)" stroke-width="3" stroke-dasharray="3 3"/>
<path opacity="0.836735" d="M235.014 1058C222.217 916.618 195.105 682.559 535.516 507.88C875.927 333.202 1056.65 283.601 1013.25 -16.1655" stroke="url(#paint41_radial_30_1974)" stroke-width="3" stroke-dasharray="3 3"/>
<path opacity="0.857143" d="M192.534 1064.72C186.331 922.997 170.151 688.139 517.763 527.617C865.375 367.095 1047.92 324.952 1018.55 23.807" stroke="url(#paint42_radial_30_1974)" stroke-width="3" stroke-dasharray="3 3"/>
<path opacity="0.877551" d="M149.606 1069.98C150.007 928.187 144.787 692.968 498.919 546.846C853.051 400.724 1037.06 366.09 1021.76 64.1285" stroke="url(#paint43_radial_30_1974)" stroke-width="3" stroke-dasharray="3 3"/>
<path opacity="0.897959" d="M106.298 1073.77C113.301 932.171 119.048 697.029 479.01 565.523C838.971 434.016 1024.09 406.926 1022.89 104.714" stroke="url(#paint44_radial_30_1974)" stroke-width="3" stroke-dasharray="3 3"/>
<path opacity="0.918367" d="M62.6797 1076.08C76.2694 934.935 92.9717 700.309 458.064 583.605C823.157 466.902 1009.02 447.376 1021.93 145.478" stroke="url(#paint45_radial_30_1974)" stroke-width="3" stroke-dasharray="3 3"/>
<path opacity="0.938776" d="M18.8212 1076.9C38.971 936.467 66.5948 702.794 436.114 601.052C805.632 499.311 991.883 487.354 1018.87 186.335" stroke="url(#paint46_radial_30_1974)" stroke-width="3" stroke-dasharray="3 3"/>
<path opacity="0.959184" d="M-25.2072 1076.21C1.46381 936.757 39.9556 704.474 413.19 617.824C786.424 531.173 972.705 526.778 1013.72 227.2" stroke="url(#paint47_radial_30_1974)" stroke-width="3" stroke-dasharray="3 3"/>
<path opacity="0.979592" d="M-69.3343 1074.01C-36.1933 935.799 13.0925 705.339 389.327 633.88C765.562 562.422 951.517 565.564 1006.47 267.988" stroke="url(#paint48_radial_30_1974)" stroke-width="3" stroke-dasharray="3 3"/>
<path d="M-113.489 1070.3C-73.9413 933.588 -13.9555 705.38 364.563 649.185C743.081 592.991 928.355 603.633 997.154 308.614" stroke="url(#paint49_radial_30_1974)" stroke-width="3" stroke-dasharray="3 3"/>
<defs>
<radialGradient id="paint0_radial_30_1974" cx="0" cy="0" r="1" gradientUnits="userSpaceOnUse" gradientTransform="translate(300.392 -237.425) rotate(-28.9029) scale(419.293 567.986)">
<stop stop-color="#9B9C9E"/>
<stop offset="1" stop-color="#9B9C9E" stop-opacity="0"/>
</radialGradient>
<radialGradient id="paint1_radial_30_1974" cx="0" cy="0" r="1" gradientUnits="userSpaceOnUse" gradientTransform="translate(326.153 -236.752) rotate(-26.495) scale(420.491 565.284)">
<stop stop-color="#9B9C9E"/>
<stop offset="1" stop-color="#9B9C9E" stop-opacity="0"/>
</radialGradient>
<radialGradient id="paint2_radial_30_1974" cx="0" cy="0" r="1" gradientUnits="userSpaceOnUse" gradientTransform="translate(351.653 -234.746) rotate(-24.1005) scale(421.627 562.681)">
<stop stop-color="#9B9C9E"/>
<stop offset="1" stop-color="#9B9C9E" stop-opacity="0"/>
</radialGradient>
<radialGradient id="paint3_radial_30_1974" cx="0" cy="0" r="1" gradientUnits="userSpaceOnUse" gradientTransform="translate(376.83 -231.422) rotate(-21.7184) scale(422.693 560.184)">
<stop stop-color="#9B9C9E"/>
<stop offset="1" stop-color="#9B9C9E" stop-opacity="0"/>
</radialGradient>
<radialGradient id="paint4_radial_30_1974" cx="0" cy="0" r="1" gradientUnits="userSpaceOnUse" gradientTransform="translate(401.619 -226.797) rotate(-19.3479) scale(423.681 557.803)">
<stop stop-color="#9B9C9E"/>
<stop offset="1" stop-color="#9B9C9E" stop-opacity="0"/>
</radialGradient>
<radialGradient id="paint5_radial_30_1974" cx="0" cy="0" r="1" gradientUnits="userSpaceOnUse" gradientTransform="translate(425.96 -220.888) rotate(-16.988) scale(424.584 555.543)">
<stop stop-color="#9B9C9E"/>
<stop offset="1" stop-color="#9B9C9E" stop-opacity="0"/>
</radialGradient>
<radialGradient id="paint6_radial_30_1974" cx="0" cy="0" r="1" gradientUnits="userSpaceOnUse" gradientTransform="translate(449.792 -213.719) rotate(-14.6375) scale(425.396 553.412)">
<stop stop-color="#9B9C9E"/>
<stop offset="1" stop-color="#9B9C9E" stop-opacity="0"/>
</radialGradient>
<radialGradient id="paint7_radial_30_1974" cx="0" cy="0" r="1" gradientUnits="userSpaceOnUse" gradientTransform="translate(473.055 -205.311) rotate(-12.2955) scale(426.112 551.413)">
<stop stop-color="#9B9C9E"/>
<stop offset="1" stop-color="#9B9C9E" stop-opacity="0"/>
</radialGradient>
<radialGradient id="paint8_radial_30_1974" cx="0" cy="0" r="1" gradientUnits="userSpaceOnUse" gradientTransform="translate(495.691 -195.693) rotate(-9.96085) scale(426.726 549.552)">
<stop stop-color="#9B9C9E"/>
<stop offset="1" stop-color="#9B9C9E" stop-opacity="0"/>
</radialGradient>
<radialGradient id="paint9_radial_30_1974" cx="0" cy="0" r="1" gradientUnits="userSpaceOnUse" gradientTransform="translate(517.643 -184.893) rotate(-7.6323) scale(427.234 547.832)">
<stop stop-color="#9B9C9E"/>
<stop offset="1" stop-color="#9B9C9E" stop-opacity="0"/>
</radialGradient>
<radialGradient id="paint10_radial_30_1974" cx="0" cy="0" r="1" gradientUnits="userSpaceOnUse" gradientTransform="translate(538.855 -172.941) rotate(-5.30869) scale(427.633 546.256)">
<stop stop-color="#9B9C9E"/>
<stop offset="1" stop-color="#9B9C9E" stop-opacity="0"/>
</radialGradient>
<radialGradient id="paint11_radial_30_1974" cx="0" cy="0" r="1" gradientUnits="userSpaceOnUse" gradientTransform="translate(559.274 -159.871) rotate(-2.9888) scale(427.92 544.825)">
<stop stop-color="#9B9C9E"/>
<stop offset="1" stop-color="#9B9C9E" stop-opacity="0"/>
</radialGradient>
<radialGradient id="paint12_radial_30_1974" cx="0" cy="0" r="1" gradientUnits="userSpaceOnUse" gradientTransform="translate(578.847 -145.719) rotate(-0.67141) scale(428.093 543.54)">
<stop stop-color="#9B9C9E"/>
<stop offset="1" stop-color="#9B9C9E" stop-opacity="0"/>
</radialGradient>
<radialGradient id="paint13_radial_30_1974" cx="0" cy="0" r="1" gradientUnits="userSpaceOnUse" gradientTransform="translate(597.524 -130.521) rotate(1.64473) scale(428.15 542.403)">
<stop stop-color="#9B9C9E"/>
<stop offset="1" stop-color="#9B9C9E" stop-opacity="0"/>
</radialGradient>
<radialGradient id="paint14_radial_30_1974" cx="0" cy="0" r="1" gradientUnits="userSpaceOnUse" gradientTransform="translate(615.256 -114.318) rotate(3.96087) scale(428.093 541.412)">
<stop stop-color="#9B9C9E"/>
<stop offset="1" stop-color="#9B9C9E" stop-opacity="0"/>
</radialGradient>
<radialGradient id="paint15_radial_30_1974" cx="0" cy="0" r="1" gradientUnits="userSpaceOnUse" gradientTransform="translate(647.427 -89.3351) rotate(6.27827) scale(444.191 546.647)">
<stop stop-color="#9B9C9E"/>
<stop offset="1" stop-color="#9B9C9E" stop-opacity="0"/>
</radialGradient>
<radialGradient id="paint16_radial_30_1974" cx="0" cy="0" r="1" gradientUnits="userSpaceOnUse" gradientTransform="translate(674.868 -65.7224) rotate(8.59815) scale(456.666 548.991)">
<stop stop-color="#9B9C9E"/>
<stop offset="1" stop-color="#9B9C9E" stop-opacity="0"/>
</radialGradient>
<radialGradient id="paint17_radial_30_1974" cx="0" cy="0" r="1" gradientUnits="userSpaceOnUse" gradientTransform="translate(695.857 -39.0354) rotate(10.9218) scale(464.516 553.628)">
<stop stop-color="#9B9C9E"/>
<stop offset="1" stop-color="#9B9C9E" stop-opacity="0"/>
</radialGradient>
<radialGradient id="paint18_radial_30_1974" cx="0" cy="0" r="1" gradientUnits="userSpaceOnUse" gradientTransform="translate(694.902 -27.5632) rotate(13.2503) scale(448.456 546.905)">
<stop stop-color="#9B9C9E"/>
<stop offset="1" stop-color="#9B9C9E" stop-opacity="0"/>
</radialGradient>
<radialGradient id="paint19_radial_30_1974" cx="0" cy="0" r="1" gradientUnits="userSpaceOnUse" gradientTransform="translate(702.623 -13.0223) rotate(15.585) scale(441.903 541.162)">
<stop stop-color="#9B9C9E"/>
<stop offset="1" stop-color="#9B9C9E" stop-opacity="0"/>
</radialGradient>
<radialGradient id="paint20_radial_30_1974" cx="0" cy="0" r="1" gradientUnits="userSpaceOnUse" gradientTransform="translate(699.365 1.58665) rotate(17.927) scale(425.396 538.418)">
<stop stop-color="#9B9C9E"/>
<stop offset="1" stop-color="#9B9C9E" stop-opacity="0"/>
</radialGradient>
<radialGradient id="paint21_radial_30_1974" cx="0" cy="0" r="1" gradientUnits="userSpaceOnUse" gradientTransform="translate(709.306 23.5777) rotate(20.2774) scale(424.584 538.375)">
<stop stop-color="#9B9C9E"/>
<stop offset="1" stop-color="#9B9C9E" stop-opacity="0"/>
</radialGradient>
<radialGradient id="paint22_radial_30_1974" cx="0" cy="0" r="1" gradientUnits="userSpaceOnUse" gradientTransform="translate(717.994 46.1977) rotate(22.6374) scale(423.681 538.448)">
<stop stop-color="#9B9C9E"/>
<stop offset="1" stop-color="#9B9C9E" stop-opacity="0"/>
</radialGradient>
<radialGradient id="paint23_radial_30_1974" cx="0" cy="0" r="1" gradientUnits="userSpaceOnUse" gradientTransform="translate(725.4 69.394) rotate(25.0079) scale(422.693 538.629)">
<stop stop-color="#9B9C9E"/>
<stop offset="1" stop-color="#9B9C9E" stop-opacity="0"/>
</radialGradient>
<radialGradient id="paint24_radial_30_1974" cx="0" cy="0" r="1" gradientUnits="userSpaceOnUse" gradientTransform="translate(731.5 93.1122) rotate(27.3899) scale(421.627 538.909)">
<stop stop-color="#9B9C9E"/>
<stop offset="1" stop-color="#9B9C9E" stop-opacity="0"/>
</radialGradient>
<radialGradient id="paint25_radial_30_1974" cx="0" cy="0" r="1" gradientUnits="userSpaceOnUse" gradientTransform="translate(736.27 117.297) rotate(29.7845) scale(420.491 539.282)">
<stop stop-color="#9B9C9E"/>
<stop offset="1" stop-color="#9B9C9E" stop-opacity="0"/>
</radialGradient>
<radialGradient id="paint26_radial_30_1974" cx="0" cy="0" r="1" gradientUnits="userSpaceOnUse" gradientTransform="translate(739.691 141.892) rotate(32.1924) scale(419.293 539.736)">
<stop stop-color="#9B9C9E"/>
<stop offset="1" stop-color="#9B9C9E" stop-opacity="0"/>
</radialGradient>
<radialGradient id="paint27_radial_30_1974" cx="0" cy="0" r="1" gradientUnits="userSpaceOnUse" gradientTransform="translate(741.746 166.841) rotate(34.6143) scale(418.042 540.261)">
<stop stop-color="#9B9C9E"/>
<stop offset="1" stop-color="#9B9C9E" stop-opacity="0"/>
</radialGradient>
<radialGradient id="paint28_radial_30_1974" cx="0" cy="0" r="1" gradientUnits="userSpaceOnUse" gradientTransform="translate(742.42 192.088) rotate(37.0511) scale(416.746 540.848)">
<stop stop-color="#9B9C9E"/>
<stop offset="1" stop-color="#9B9C9E" stop-opacity="0"/>
</radialGradient>
<radialGradient id="paint29_radial_30_1974" cx="0" cy="0" r="1" gradientUnits="userSpaceOnUse" gradientTransform="translate(741.703 217.573) rotate(39.5034) scale(415.416 541.484)">
<stop stop-color="#9B9C9E"/>
<stop offset="1" stop-color="#9B9C9E" stop-opacity="0"/>
</radialGradient>
<radialGradient id="paint30_radial_30_1974" cx="0" cy="0" r="1" gradientUnits="userSpaceOnUse" gradientTransform="translate(739.584 243.239) rotate(41.9715) scale(414.06 542.156)">
<stop stop-color="#9B9C9E"/>
<stop offset="1" stop-color="#9B9C9E" stop-opacity="0"/>
</radialGradient>
<radialGradient id="paint31_radial_30_1974" cx="0" cy="0" r="1" gradientUnits="userSpaceOnUse" gradientTransform="translate(736.059 269.028) rotate(44.4559) scale(412.69 542.852)">
<stop stop-color="#9B9C9E"/>
<stop offset="1" stop-color="#9B9C9E" stop-opacity="0"/>
</radialGradient>
<radialGradient id="paint32_radial_30_1974" cx="0" cy="0" r="1" gradientUnits="userSpaceOnUse" gradientTransform="translate(731.124 294.881) rotate(46.957) scale(411.315 543.56)">
<stop stop-color="#9B9C9E"/>
<stop offset="1" stop-color="#9B9C9E" stop-opacity="0"/>
</radialGradient>
<radialGradient id="paint33_radial_30_1974" cx="0" cy="0" r="1" gradientUnits="userSpaceOnUse" gradientTransform="translate(724.779 320.74) rotate(49.4748) scale(409.946 544.264)">
<stop stop-color="#9B9C9E"/>
<stop offset="1" stop-color="#9B9C9E" stop-opacity="0"/>
</radialGradient>
<radialGradient id="paint34_radial_30_1974" cx="0" cy="0" r="1" gradientUnits="userSpaceOnUse" gradientTransform="translate(717.026 346.547) rotate(52.0093) scale(408.593 544.95)">
<stop stop-color="#9B9C9E"/>
<stop offset="1" stop-color="#9B9C9E" stop-opacity="0"/>
</radialGradient>
<radialGradient id="paint35_radial_30_1974" cx="0" cy="0" r="1" gradientUnits="userSpaceOnUse" gradientTransform="translate(707.87 372.243) rotate(54.5606) scale(407.268 545.606)">
<stop stop-color="#9B9C9E"/>
<stop offset="1" stop-color="#9B9C9E" stop-opacity="0"/>
</radialGradient>
<radialGradient id="paint36_radial_30_1974" cx="0" cy="0" r="1" gradientUnits="userSpaceOnUse" gradientTransform="translate(697.321 397.772) rotate(57.1283) scale(405.979 546.215)">
<stop stop-color="#9B9C9E"/>
<stop offset="1" stop-color="#9B9C9E" stop-opacity="0"/>
</radialGradient>
<radialGradient id="paint37_radial_30_1974" cx="0" cy="0" r="1" gradientUnits="userSpaceOnUse" gradientTransform="translate(685.388 423.076) rotate(59.712) scale(404.738 546.764)">
<stop stop-color="#9B9C9E"/>
<stop offset="1" stop-color="#9B9C9E" stop-opacity="0"/>
</radialGradient>
<radialGradient id="paint38_radial_30_1974" cx="0" cy="0" r="1" gradientUnits="userSpaceOnUse" gradientTransform="translate(672.085 448.098) rotate(62.3113) scale(403.555 547.238)">
<stop stop-color="#9B9C9E"/>
<stop offset="1" stop-color="#9B9C9E" stop-opacity="0"/>
</radialGradient>
<radialGradient id="paint39_radial_30_1974" cx="0" cy="0" r="1" gradientUnits="userSpaceOnUse" gradientTransform="translate(657.428 472.782) rotate(64.9255) scale(402.439 547.624)">
<stop stop-color="#9B9C9E"/>
<stop offset="1" stop-color="#9B9C9E" stop-opacity="0"/>
</radialGradient>
<radialGradient id="paint40_radial_30_1974" cx="0" cy="0" r="1" gradientUnits="userSpaceOnUse" gradientTransform="translate(641.437 497.073) rotate(67.5537) scale(401.398 547.908)">
<stop stop-color="#9B9C9E"/>
<stop offset="1" stop-color="#9B9C9E" stop-opacity="0"/>
</radialGradient>
<radialGradient id="paint41_radial_30_1974" cx="0" cy="0" r="1" gradientUnits="userSpaceOnUse" gradientTransform="translate(624.133 520.918) rotate(70.195) scale(400.443 548.078)">
<stop stop-color="#9B9C9E"/>
<stop offset="1" stop-color="#9B9C9E" stop-opacity="0"/>
</radialGradient>
<radialGradient id="paint42_radial_30_1974" cx="0" cy="0" r="1" gradientUnits="userSpaceOnUse" gradientTransform="translate(605.54 544.262) rotate(72.8483) scale(399.58 548.122)">
<stop stop-color="#9B9C9E"/>
<stop offset="1" stop-color="#9B9C9E" stop-opacity="0"/>
</radialGradient>
<radialGradient id="paint43_radial_30_1974" cx="0" cy="0" r="1" gradientUnits="userSpaceOnUse" gradientTransform="translate(585.684 567.054) rotate(75.5125) scale(398.817 548.028)">
<stop stop-color="#9B9C9E"/>
<stop offset="1" stop-color="#9B9C9E" stop-opacity="0"/>
</radialGradient>
<radialGradient id="paint44_radial_30_1974" cx="0" cy="0" r="1" gradientUnits="userSpaceOnUse" gradientTransform="translate(564.595 589.243) rotate(78.1861) scale(398.16 547.788)">
<stop stop-color="#9B9C9E"/>
<stop offset="1" stop-color="#9B9C9E" stop-opacity="0"/>
</radialGradient>
<radialGradient id="paint45_radial_30_1974" cx="0" cy="0" r="1" gradientUnits="userSpaceOnUse" gradientTransform="translate(542.304 610.78) rotate(80.8679) scale(397.614 547.394)">
<stop stop-color="#9B9C9E"/>
<stop offset="1" stop-color="#9B9C9E" stop-opacity="0"/>
</radialGradient>
<radialGradient id="paint46_radial_30_1974" cx="0" cy="0" r="1" gradientUnits="userSpaceOnUse" gradientTransform="translate(518.846 631.615) rotate(83.5562) scale(397.185 546.838)">
<stop stop-color="#9B9C9E"/>
<stop offset="1" stop-color="#9B9C9E" stop-opacity="0"/>
</radialGradient>
<radialGradient id="paint47_radial_30_1974" cx="0" cy="0" r="1" gradientUnits="userSpaceOnUse" gradientTransform="translate(494.255 651.703) rotate(86.2496) scale(396.876 546.116)">
<stop stop-color="#9B9C9E"/>
<stop offset="1" stop-color="#9B9C9E" stop-opacity="0"/>
</radialGradient>
<radialGradient id="paint48_radial_30_1974" cx="0" cy="0" r="1" gradientUnits="userSpaceOnUse" gradientTransform="translate(468.57 670.999) rotate(88.9463) scale(396.69 545.225)">
<stop stop-color="#9B9C9E"/>
<stop offset="1" stop-color="#9B9C9E" stop-opacity="0"/>
</radialGradient>
<radialGradient id="paint49_radial_30_1974" cx="0" cy="0" r="1" gradientUnits="userSpaceOnUse" gradientTransform="translate(441.832 689.46) rotate(91.6447) scale(396.627 544.162)">
<stop stop-color="#9B9C9E"/>
<stop offset="1" stop-color="#9B9C9E" stop-opacity="0"/>
</radialGradient>
</defs>
</svg>
