<svg width="42" height="40" viewBox="0 0 42 40" fill="none" xmlns="http://www.w3.org/2000/svg">
<path d="M12.6138 33.0878C12.3101 32.8687 12.0838 32.5595 11.9672 32.2045C11.8506 31.8495 11.8497 31.4668 11.9647 31.1113L12.336 29.5809C12.4023 29.3119 12.5247 29.0597 12.6951 28.8409C12.8655 28.622 13.0802 28.4412 13.3253 28.3103L14.5442 27.6721C15.2961 27.2828 15.8965 26.6552 16.2506 25.8883C16.6048 25.1214 16.6925 24.2588 16.5 23.4368L16.483 23.3605C16.2574 22.4399 15.6951 21.6363 14.9061 21.1068C14.1171 20.5773 13.1583 20.36 12.217 20.4974L10.8535 20.6922C10.5763 20.7318 10.2939 20.7126 10.0247 20.6357C9.75549 20.5588 9.50568 20.426 9.29169 20.2461L8.087 19.2268C7.788 19.0039 7.56598 18.6939 7.45171 18.3398C7.33743 17.9857 7.33656 17.6049 7.44922 17.2502C7.70571 16.4645 7.69836 15.6169 7.42829 14.8357C7.15822 14.0545 6.64011 13.3821 5.95232 12.9203C5.26454 12.4585 4.44449 12.2323 3.6162 12.276C2.78791 12.3198 1.99643 12.631 1.36148 13.1626C0.726525 13.6942 0.282628 14.4173 0.0969259 15.2226C-0.0887768 16.0279 -0.0061844 16.8715 0.332211 17.6258C0.670607 18.3802 1.2464 19.0042 1.9725 19.4036C2.69861 19.803 3.53553 19.956 4.35669 19.8395C4.48992 19.8197 4.62031 19.7915 4.7507 19.7604L5.10502 19.6927C5.3993 19.6347 5.70294 19.644 5.9931 19.7198C6.28327 19.7956 6.5524 19.936 6.78026 20.1303L8.41864 21.5421C8.66905 21.7606 8.86026 22.0382 8.97469 22.3496C9.08911 22.6609 9.12307 22.996 9.07343 23.3238L9.03375 23.5723L8.99973 23.7897V23.8095C8.94647 24.2627 8.97528 24.7217 9.08477 25.1648C9.08477 25.1902 9.08477 25.2156 9.10461 25.2382V25.2664C9.26173 25.8673 9.56553 26.4202 9.989 26.8759C10.04 26.9295 10.091 26.9804 10.1449 27.0312L10.3235 27.2091C10.5592 27.4472 10.7305 27.741 10.8212 28.0629C10.9119 28.3849 10.9192 28.7245 10.8422 29.0501L10.3433 31.1424C10.2747 31.4332 10.1402 31.7045 9.95006 31.9355C9.75991 32.1665 9.51919 32.3511 9.24634 32.4751L8.94021 32.6163C8.81525 32.6649 8.69316 32.7205 8.57454 32.7829C8.01695 33.076 7.54153 33.503 7.19127 34.0252C6.6124 34.852 6.38694 35.8739 6.56449 36.8663C6.74204 37.8586 7.30806 38.7401 8.13802 39.3167C8.96798 39.8933 9.99391 40.1179 10.9901 39.941C11.9863 39.7642 12.8712 39.2003 13.45 38.3736C13.7926 37.9058 14.0225 37.3657 14.1218 36.7952C14.1478 36.6665 14.1658 36.5364 14.1757 36.4055L14.2154 36.0724C14.1927 35.4866 14.0368 34.9135 13.7593 34.3965C13.4819 33.8795 13.0902 33.432 12.6138 33.0878Z" fill="white"/>
<path d="M41.7652 14.9066C41.5642 14.2936 41.2102 13.7415 40.7364 13.3021C40.2625 12.8628 39.6843 12.5505 39.0561 12.3947C38.4279 12.2389 37.7703 12.2447 37.1449 12.4114C36.5196 12.5781 35.947 12.9004 35.4809 13.348C35.3815 13.4371 35.2869 13.5314 35.1975 13.6304L34.9679 13.8788C34.7646 14.0981 34.5142 14.2686 34.2354 14.3776C33.9565 14.4867 33.6565 14.5314 33.3578 14.5085L31.2036 14.3334C30.8686 14.3058 30.5462 14.1939 30.2666 14.0082C29.987 13.8225 29.7593 13.5691 29.6049 13.2718L29.4915 13.0487C29.4575 12.9809 29.4263 12.916 29.3894 12.8539V12.8341C29.1657 12.4352 28.8708 12.0802 28.5192 11.7866L28.4625 11.7414L28.437 11.7188C27.9547 11.3269 27.3835 11.0584 26.7731 10.9367H26.7504L26.5322 10.8999L26.2799 10.8802C25.9486 10.8262 25.6365 10.6893 25.3727 10.4824C25.109 10.2755 24.9023 10.0053 24.7719 9.69709L23.9385 7.72057C23.8237 7.44447 23.7733 7.14603 23.7909 6.8477C23.8086 6.54937 23.894 6.25891 24.0406 5.99818L24.2078 5.71582C24.2796 5.60287 24.3448 5.48711 24.4034 5.36852C24.6601 4.84946 24.793 4.27838 24.7917 3.69977C24.7646 2.70936 24.3506 1.76857 23.6378 1.0776C22.925 0.386621 21.9696 0 20.975 0C19.9804 0 19.025 0.386621 18.3122 1.0776C17.5993 1.76857 17.1853 2.70936 17.1582 3.69977C17.157 4.27838 17.2899 4.84946 17.5466 5.36852C17.607 5.48711 17.6722 5.60287 17.7421 5.71582L17.9094 5.99818C18.056 6.25891 18.1414 6.54937 18.159 6.8477C18.1767 7.14603 18.1263 7.44447 18.0114 7.72057L17.1781 9.69709C17.0487 10.0038 16.8437 10.2731 16.5821 10.4799C16.3205 10.6867 16.0107 10.8244 15.6814 10.8802L15.4348 10.9197L15.2137 10.9564H15.1939C14.7432 11.0448 14.3127 11.2152 13.924 11.459L13.8673 11.4957C13.8559 11.5006 13.8454 11.5073 13.8361 11.5155C13.3104 11.8513 12.8769 12.3123 12.5747 12.8567V12.8765C12.5407 12.9386 12.5067 13.0064 12.4755 13.0713C10.9278 16.3806 14.3151 18.2159 14.7432 18.3288C15.266 18.4862 15.8156 18.5353 16.3581 18.4732C16.9007 18.411 17.4248 18.2389 17.8981 17.9674L17.9689 17.9222C18.7766 17.423 19.3675 16.6409 19.6256 15.7297C19.8837 14.8184 19.7902 13.844 19.3635 12.9979L18.7456 11.7555C18.622 11.5051 18.5531 11.2314 18.5433 10.9526C18.5336 10.6737 18.5832 10.396 18.6889 10.1376L19.2785 8.6806C19.3978 8.32843 19.6249 8.02241 19.928 7.80564C20.2311 7.58886 20.5948 7.47227 20.9679 7.47227C21.341 7.47227 21.7047 7.58886 22.0078 7.80564C22.3109 8.02241 22.538 8.32843 22.6573 8.6806L23.2582 10.1376C23.3644 10.3958 23.4145 10.6734 23.4052 10.9523C23.3959 11.2311 23.3275 11.5049 23.2044 11.7555L22.5949 12.9866C22.2152 13.744 22.1009 14.6062 22.2705 15.4358C22.44 16.2653 22.8836 17.0145 23.5304 17.5636L23.5899 17.6173C24.0852 18.0333 24.679 18.3164 25.3149 18.4399C25.9508 18.5635 26.6079 18.5233 27.2238 18.3232C27.7887 18.1437 28.3026 17.833 28.7233 17.4168L29.7126 16.4596C29.9119 16.2622 30.1515 16.1097 30.415 16.0123C30.6786 15.9148 30.96 15.8748 31.2404 15.8949L32.8164 16.0135C33.1893 16.0184 33.5515 16.1387 33.8527 16.3577C34.1538 16.5768 34.3791 16.8838 34.4973 17.2361C34.7383 17.9759 35.3477 19.3962 37.5785 19.8225C38.2198 19.9129 38.8737 19.8392 39.4785 19.6085C40.0834 19.3778 40.6194 18.9976 41.0361 18.5037C41.4528 18.0098 41.7365 17.4185 41.8606 16.7853C41.9847 16.152 41.945 15.4978 41.7454 14.884L41.7652 14.9066Z" fill="#EC1D35"/>
<path d="M27.9882 20.6441C27.4712 20.8216 26.9966 21.1035 26.5942 21.4723C26.1917 21.8411 25.8702 22.2888 25.6496 22.7872C25.6496 22.8126 25.627 22.8381 25.6185 22.8635C25.2633 23.7408 25.2488 24.7186 25.5779 25.606C25.907 26.4934 26.5561 27.2269 27.3986 27.6636L28.6203 28.3017C28.8675 28.4323 29.0843 28.6136 29.2562 28.8335C29.4282 29.0535 29.5515 29.3072 29.618 29.578L29.9922 31.1084C30.1066 31.4634 30.1056 31.8454 29.9892 32.1998C29.8729 32.5542 29.6472 32.8629 29.3443 33.082C29.0414 33.3011 28.6768 33.4193 28.3024 33.4199C27.9281 33.4204 27.5632 33.3032 27.2597 33.0849L25.9133 32.2604C25.6745 32.1153 25.4693 31.9215 25.311 31.6918C25.1527 31.4622 25.045 31.2017 24.9948 30.9277L24.7624 29.5752C24.6243 28.7403 24.2101 27.9754 23.5856 27.4019C22.9611 26.8284 22.1621 26.4792 21.3156 26.4099H21.2334C20.2848 26.3415 19.3448 26.6285 18.5976 27.2145C17.8504 27.8005 17.3499 28.6434 17.1941 29.578C16.6555 32.7969 19.561 33.8444 20.6863 33.9884H20.7912C21.413 34.0239 22.034 33.9065 22.5996 33.6468H22.6195L22.8179 33.548L23.0418 33.435C23.3418 33.2845 23.6752 33.2122 24.0108 33.2251C24.3465 33.2379 24.6734 33.3354 24.9608 33.5084L26.8061 34.6379C27.0625 34.7928 27.2798 35.0042 27.4414 35.2558C27.6031 35.5073 27.7048 35.7924 27.7387 36.0892L27.7784 36.4224C27.7873 36.5559 27.8034 36.6888 27.8266 36.8205C27.9375 37.4569 28.2092 38.0547 28.6162 38.5575C29.0232 39.0604 29.5521 39.4516 30.1529 39.6945C30.7538 39.9374 31.4068 40.0238 32.0505 39.9456C32.6942 39.8675 33.3072 39.6273 33.8319 39.2478C34.3566 38.8683 34.7757 38.3619 35.0495 37.7765C35.3234 37.191 35.443 36.5457 35.3972 35.9014C35.3513 35.2571 35.1415 34.635 34.7875 34.0938C34.4336 33.5527 33.947 33.1102 33.3739 32.8082C33.2548 32.7461 33.1329 32.6924 33.0082 32.6416L32.7021 32.5004C32.4295 32.3767 32.189 32.1926 31.9989 31.9621C31.8088 31.7316 31.6741 31.4608 31.6051 31.1705L31.1062 29.0754C31.0293 28.7499 31.0365 28.4102 31.1272 28.0882C31.2179 27.7663 31.3892 27.4725 31.6249 27.2344L31.8035 27.0565C31.8574 27.0057 31.9084 26.9549 31.9594 26.9012V26.8843C32.2716 26.55 32.5195 26.1614 32.6907 25.7379L32.7162 25.6729V25.6419C32.9414 25.0637 33.0212 24.4394 32.9487 23.8235V23.8009C32.4441 20.1217 28.8045 20.342 27.9882 20.6441Z" fill="#402FFF"/>
</svg>
