<svg width="903" height="600" viewBox="0 0 903 600" fill="none" xmlns="http://www.w3.org/2000/svg">
<path opacity="0.01" d="M984.94 53.2753C832.113 55.028 579.212 63.8783 384.293 -291.481C189.373 -646.841 132.585 -832.115 -191.165 -812.075" stroke="url(#paint0_radial_1_254)" stroke-width="3" stroke-dasharray="3 3"/>
<path opacity="0.0204082" d="M989.762 82.076C836.752 77.641 583.266 76.2251 404.955 -285.425C226.645 -647.075 178.546 -833.816 -146.363 -826.956" stroke="url(#paint1_radial_1_254)" stroke-width="3" stroke-dasharray="3 3"/>
<path opacity="0.0408163" d="M993.021 111.218C840.111 100.606 586.513 88.9282 425.085 -278.309C263.656 -645.546 224.305 -833.391 -101.155 -839.723" stroke="url(#paint2_radial_1_254)" stroke-width="3" stroke-dasharray="3 3"/>
<path opacity="0.0612245" d="M994.698 140.638C842.174 123.868 588.937 101.953 444.631 -270.16C300.324 -642.274 269.763 -830.859 -55.6399 -850.37" stroke="url(#paint3_radial_1_254)" stroke-width="3" stroke-dasharray="3 3"/>
<path opacity="0.0816327" d="M994.78 170.268C842.926 147.375 590.523 115.265 463.545 -261.007C336.567 -637.28 314.821 -826.242 -9.91649 -858.892" stroke="url(#paint4_radial_1_254)" stroke-width="3" stroke-dasharray="3 3"/>
<path opacity="0.102041" d="M993.256 200.044C842.353 171.071 591.255 128.829 481.779 -250.88C372.304 -630.589 359.379 -819.565 35.9154 -865.292" stroke="url(#paint5_radial_1_254)" stroke-width="3" stroke-dasharray="3 3"/>
<path opacity="0.122449" d="M990.117 229.899C840.447 194.902 591.122 142.609 499.288 -239.811C407.454 -622.23 403.343 -810.86 81.7567 -869.575" stroke="url(#paint6_radial_1_254)" stroke-width="3" stroke-dasharray="3 3"/>
<path opacity="0.142857" d="M985.359 259.768C837.2 218.814 590.112 156.568 516.026 -227.834C441.94 -612.235 446.615 -800.158 127.509 -871.75" stroke="url(#paint7_radial_1_254)" stroke-width="3" stroke-dasharray="3 3"/>
<path opacity="0.163265" d="M978.979 289.584C832.607 242.749 588.217 170.67 531.951 -214.984C475.684 -600.638 489.104 -787.498 173.073 -871.831" stroke="url(#paint8_radial_1_254)" stroke-width="3" stroke-dasharray="3 3"/>
<path opacity="0.183673" d="M970.979 319.28C826.666 266.655 585.43 184.878 547.021 -201.3C508.612 -587.477 530.717 -772.921 218.351 -869.835" stroke="url(#paint9_radial_1_254)" stroke-width="3" stroke-dasharray="3 3"/>
<path opacity="0.204082" d="M961.363 348.791C819.378 290.474 581.744 199.154 561.198 -186.819C540.651 -572.793 571.364 -756.471 263.248 -865.783" stroke="url(#paint10_radial_1_254)" stroke-width="3" stroke-dasharray="3 3"/>
<path opacity="0.22449" d="M950.139 378.051C810.744 314.153 577.156 213.462 574.442 -171.583C571.728 -556.629 610.958 -738.197 307.667 -859.701" stroke="url(#paint11_radial_1_254)" stroke-width="3" stroke-dasharray="3 3"/>
<path opacity="0.244898" d="M937.316 406.995C800.771 337.635 571.664 227.764 586.72 -155.634C601.776 -539.032 649.414 -718.152 351.515 -851.618" stroke="url(#paint12_radial_1_254)" stroke-width="3" stroke-dasharray="3 3"/>
<path opacity="0.265306" d="M922.909 435.559C789.467 360.868 565.267 242.024 597.997 -139.014C630.727 -520.051 686.649 -696.389 394.698 -841.566" stroke="url(#paint13_radial_1_254)" stroke-width="3" stroke-dasharray="3 3"/>
<path opacity="0.285714" d="M906.933 463.678C776.842 383.797 557.967 256.202 608.242 -121.768C658.516 -499.738 722.583 -672.967 437.125 -829.582" stroke="url(#paint14_radial_1_254)" stroke-width="3" stroke-dasharray="3 3"/>
<path opacity="0.306122" d="M915.5 514C789.002 429.079 549.767 270.263 617.424 -103.941C685.082 -478.146 757.14 -647.948 478.708 -815.706" stroke="url(#paint15_radial_1_254)" stroke-width="3" stroke-dasharray="3 3"/>
<path opacity="0.326531" d="M916.5 557.5C793.829 467.698 540.671 284.171 625.518 -85.5806C710.365 -455.332 790.245 -621.396 519.358 -799.981" stroke="url(#paint16_radial_1_254)" stroke-width="3" stroke-dasharray="3 3"/>
<path opacity="0.346939" d="M904.5 602C785.883 507.485 530.687 297.887 632.498 -66.7336C734.309 -431.354 821.827 -593.377 558.991 -782.455" stroke="url(#paint17_radial_1_254)" stroke-width="3" stroke-dasharray="3 3"/>
<path opacity="0.367347" d="M858.5 604.5C744.158 505.45 519.823 311.377 638.341 -47.4487C756.859 -406.274 851.817 -563.961 597.522 -763.176" stroke="url(#paint18_radial_1_254)" stroke-width="3" stroke-dasharray="3 3"/>
<path opacity="0.387755" d="M829 615.5C719.144 512.1 508.087 324.604 643.026 -27.7753C777.965 -380.154 880.153 -533.222 634.873 -742.199" stroke="url(#paint19_radial_1_254)" stroke-width="3" stroke-dasharray="3 3"/>
<path opacity="0.408163" d="M779.437 619.614C674.271 512.058 495.494 337.533 646.536 -7.76307C797.579 -353.059 906.772 -501.232 670.965 -719.579" stroke="url(#paint20_radial_1_254)" stroke-width="3" stroke-dasharray="3 3"/>
<path opacity="0.428571" d="M753.189 642.923C652.907 531.412 482.055 350.13 648.855 12.5376C815.655 -325.055 931.618 -468.069 705.723 -695.377" stroke="url(#paint21_radial_1_254)" stroke-width="3" stroke-dasharray="3 3"/>
<path opacity="0.44898" d="M725.609 665.318C630.397 550.06 467.786 362.361 649.97 33.0756C832.153 -296.21 954.636 -433.813 739.074 -669.654" stroke="url(#paint22_radial_1_254)" stroke-width="3" stroke-dasharray="3 3"/>
<path opacity="0.469388" d="M696.737 686.747C606.771 567.958 452.703 374.193 649.869 53.8C847.034 -266.593 975.777 -398.542 770.95 -642.476" stroke="url(#paint23_radial_1_254)" stroke-width="3" stroke-dasharray="3 3"/>
<path opacity="0.489796" d="M666.617 707.158C582.064 585.06 436.825 385.592 648.544 74.6591C860.263 -236.274 994.994 -362.341 801.283 -613.908" stroke="url(#paint24_radial_1_254)" stroke-width="3" stroke-dasharray="3 3"/>
<path opacity="0.510204" d="M635.297 726.505C556.312 601.327 420.171 396.528 645.989 95.6013C871.807 -205.326 1012.25 -325.292 830.011 -584.022" stroke="url(#paint25_radial_1_254)" stroke-width="3" stroke-dasharray="3 3"/>
<path opacity="0.530612" d="M602.824 744.741C529.553 616.715 402.763 406.97 642.201 116.575C881.639 -173.821 1027.49 -287.481 857.075 -552.889" stroke="url(#paint26_radial_1_254)" stroke-width="3" stroke-dasharray="3 3"/>
<path opacity="0.55102" d="M569.25 761.821C501.827 631.188 384.622 416.888 637.178 137.528C889.734 -141.832 1040.7 -248.995 882.417 -520.583" stroke="url(#paint27_radial_1_254)" stroke-width="3" stroke-dasharray="3 3"/>
<path opacity="0.571429" d="M534.626 777.704C473.177 644.707 365.774 426.253 630.923 158.409C896.071 -109.435 1051.85 -209.92 905.986 -487.18" stroke="url(#paint28_radial_1_254)" stroke-width="3" stroke-dasharray="3 3"/>
<path opacity="0.591837" d="M499.01 792.35C443.647 657.237 346.244 435.038 623.438 179.167C900.631 -76.7036 1060.89 -170.347 927.732 -452.759" stroke="url(#paint29_radial_1_254)" stroke-width="3" stroke-dasharray="3 3"/>
<path opacity="0.612245" d="M462.456 805.722C413.281 668.745 326.059 443.216 614.73 199.751C903.401 -43.7134 1067.83 -130.363 947.611 -417.398" stroke="url(#paint30_radial_1_254)" stroke-width="3" stroke-dasharray="3 3"/>
<path opacity="0.632653" d="M425.024 817.785C382.127 679.2 305.246 450.762 604.808 220.111C904.37 -10.5399 1072.63 -90.0583 965.579 -381.179" stroke="url(#paint31_radial_1_254)" stroke-width="3" stroke-dasharray="3 3"/>
<path opacity="0.653061" d="M386.775 828.507C350.234 688.571 283.834 457.651 593.682 240.196C903.53 22.7411 1075.28 -49.5228 981.6 -344.184" stroke="url(#paint32_radial_1_254)" stroke-width="3" stroke-dasharray="3 3"/>
<path opacity="0.673469" d="M347.769 837.857C317.651 696.832 261.855 463.861 581.367 259.958C900.878 56.0542 1075.78 -8.84638 995.639 -306.497" stroke="url(#paint33_radial_1_254)" stroke-width="3" stroke-dasharray="3 3"/>
<path opacity="0.693878" d="M308.07 845.808C284.429 703.958 239.34 469.371 567.878 279.348C896.415 89.3239 1074.13 31.8809 1007.67 -268.202" stroke="url(#paint34_radial_1_254)" stroke-width="3" stroke-dasharray="3 3"/>
<path opacity="0.714286" d="M267.743 852.337C250.622 709.925 216.321 474.16 553.233 298.318C890.144 122.475 1070.31 72.5692 1017.66 -229.384" stroke="url(#paint35_radial_1_254)" stroke-width="3" stroke-dasharray="3 3"/>
<path opacity="0.734694" d="M226.854 857.421C216.283 714.712 192.832 478.21 537.452 316.821C882.073 155.433 1064.33 113.129 1025.59 -190.13" stroke="url(#paint36_radial_1_254)" stroke-width="3" stroke-dasharray="3 3"/>
<path opacity="0.755102" d="M185.469 861.04C181.467 718.3 168.907 481.502 520.559 334.813C872.211 188.124 1056.21 153.472 1031.45 -150.526" stroke="url(#paint37_radial_1_254)" stroke-width="3" stroke-dasharray="3 3"/>
<path opacity="0.77551" d="M143.656 863.18C146.228 720.675 144.582 484.022 502.578 352.248C860.574 220.475 1045.96 193.509 1035.21 -110.658" stroke="url(#paint38_radial_1_254)" stroke-width="3" stroke-dasharray="3 3"/>
<path opacity="0.795918" d="M101.485 863.825C110.624 721.82 119.892 485.754 483.535 369.084C847.178 252.413 1033.58 233.154 1036.87 -70.6146" stroke="url(#paint39_radial_1_254)" stroke-width="3" stroke-dasharray="3 3"/>
<path opacity="0.816327" d="M59.0232 862.966C74.712 721.726 94.8744 486.687 463.46 385.277C832.046 283.867 1019.11 272.32 1036.43 -30.4815" stroke="url(#paint40_radial_1_254)" stroke-width="3" stroke-dasharray="3 3"/>
<path opacity="0.836735" d="M16.3418 860.595C38.5491 720.382 69.5665 486.809 442.384 400.788C815.201 314.768 1002.57 310.922 1033.88 9.65413" stroke="url(#paint41_radial_1_254)" stroke-width="3" stroke-dasharray="3 3"/>
<path opacity="0.857143" d="M-26.4892 856.707C2.19373 717.781 44.006 486.109 420.339 415.577C796.672 345.046 983.978 348.878 1029.23 49.7059" stroke="url(#paint42_radial_1_254)" stroke-width="3" stroke-dasharray="3 3"/>
<path opacity="0.877551" d="M-69.3994 851.299C-34.2957 713.92 18.2315 484.581 397.361 429.607C776.49 374.634 963.377 386.104 1022.47 89.5879" stroke="url(#paint43_radial_1_254)" stroke-width="3" stroke-dasharray="3 3"/>
<path opacity="0.897959" d="M-112.318 844.373C-70.8603 708.796 -7.71826 482.217 373.485 442.842C754.688 403.466 940.801 422.522 1013.63 129.215" stroke="url(#paint44_radial_1_254)" stroke-width="3" stroke-dasharray="3 3"/>
<path opacity="0.918367" d="M-155.174 835.933C-107.441 702.409 -33.8041 479.013 348.75 455.246C731.304 431.48 916.29 458.052 1002.72 168.502" stroke="url(#paint45_radial_1_254)" stroke-width="3" stroke-dasharray="3 3"/>
<path opacity="0.938776" d="M-197.897 825.984C-143.98 694.763 -59.9868 474.965 323.195 466.788C706.378 458.611 889.887 492.618 989.751 207.367" stroke="url(#paint46_radial_1_254)" stroke-width="3" stroke-dasharray="3 3"/>
<path opacity="0.959184" d="M-240.417 814.538C-180.416 685.861 -86.2266 470.071 296.863 477.436C679.953 484.801 861.641 526.146 974.75 245.727" stroke="url(#paint47_radial_1_254)" stroke-width="3" stroke-dasharray="3 3"/>
<path opacity="0.979592" d="M-282.664 801.605C-216.693 675.713 -112.484 464.333 269.796 487.162C652.076 509.992 831.602 558.565 957.742 283.5" stroke="url(#paint48_radial_1_254)" stroke-width="3" stroke-dasharray="3 3"/>
<path d="M-324.567 787.201C-252.751 664.328 -138.719 457.751 242.038 495.938C622.794 534.126 799.824 589.805 938.758 320.609" stroke="url(#paint49_radial_1_254)" stroke-width="3" stroke-dasharray="3 3"/>
<defs>
<radialGradient id="paint0_radial_1_254" cx="0" cy="0" r="1" gradientUnits="userSpaceOnUse" gradientTransform="translate(396.887 -379.4) rotate(-14.7312) scale(419.293 567.986)">
<stop stop-color="#9B9C9E"/>
<stop offset="1" stop-color="#9B9C9E" stop-opacity="0"/>
</radialGradient>
<radialGradient id="paint1_radial_1_254" cx="0" cy="0" r="1" gradientUnits="userSpaceOnUse" gradientTransform="translate(421.699 -372.44) rotate(-12.3233) scale(420.491 565.284)">
<stop stop-color="#9B9C9E"/>
<stop offset="1" stop-color="#9B9C9E" stop-opacity="0"/>
</radialGradient>
<radialGradient id="paint2_radial_1_254" cx="0" cy="0" r="1" gradientUnits="userSpaceOnUse" gradientTransform="translate(445.933 -364.252) rotate(-9.92878) scale(421.627 562.681)">
<stop stop-color="#9B9C9E"/>
<stop offset="1" stop-color="#9B9C9E" stop-opacity="0"/>
</radialGradient>
<radialGradient id="paint3_radial_1_254" cx="0" cy="0" r="1" gradientUnits="userSpaceOnUse" gradientTransform="translate(469.529 -354.866) rotate(-7.54672) scale(422.693 560.184)">
<stop stop-color="#9B9C9E"/>
<stop offset="1" stop-color="#9B9C9E" stop-opacity="0"/>
</radialGradient>
<radialGradient id="paint4_radial_1_254" cx="0" cy="0" r="1" gradientUnits="userSpaceOnUse" gradientTransform="translate(492.432 -344.312) rotate(-5.17621) scale(423.681 557.803)">
<stop stop-color="#9B9C9E"/>
<stop offset="1" stop-color="#9B9C9E" stop-opacity="0"/>
</radialGradient>
<radialGradient id="paint5_radial_1_254" cx="0" cy="0" r="1" gradientUnits="userSpaceOnUse" gradientTransform="translate(514.586 -332.624) rotate(-2.81626) scale(424.584 555.543)">
<stop stop-color="#9B9C9E"/>
<stop offset="1" stop-color="#9B9C9E" stop-opacity="0"/>
</radialGradient>
<radialGradient id="paint6_radial_1_254" cx="0" cy="0" r="1" gradientUnits="userSpaceOnUse" gradientTransform="translate(535.937 -319.838) rotate(-0.465838) scale(425.396 553.412)">
<stop stop-color="#9B9C9E"/>
<stop offset="1" stop-color="#9B9C9E" stop-opacity="0"/>
</radialGradient>
<radialGradient id="paint7_radial_1_254" cx="0" cy="0" r="1" gradientUnits="userSpaceOnUse" gradientTransform="translate(556.434 -305.991) rotate(1.87615) scale(426.112 551.413)">
<stop stop-color="#9B9C9E"/>
<stop offset="1" stop-color="#9B9C9E" stop-opacity="0"/>
</radialGradient>
<radialGradient id="paint8_radial_1_254" cx="0" cy="0" r="1" gradientUnits="userSpaceOnUse" gradientTransform="translate(576.026 -291.124) rotate(4.21084) scale(426.726 549.552)">
<stop stop-color="#9B9C9E"/>
<stop offset="1" stop-color="#9B9C9E" stop-opacity="0"/>
</radialGradient>
<radialGradient id="paint9_radial_1_254" cx="0" cy="0" r="1" gradientUnits="userSpaceOnUse" gradientTransform="translate(594.665 -275.278) rotate(6.53939) scale(427.234 547.832)">
<stop stop-color="#9B9C9E"/>
<stop offset="1" stop-color="#9B9C9E" stop-opacity="0"/>
</radialGradient>
<radialGradient id="paint10_radial_1_254" cx="0" cy="0" r="1" gradientUnits="userSpaceOnUse" gradientTransform="translate(612.306 -258.496) rotate(8.86301) scale(427.633 546.256)">
<stop stop-color="#9B9C9E"/>
<stop offset="1" stop-color="#9B9C9E" stop-opacity="0"/>
</radialGradient>
<radialGradient id="paint11_radial_1_254" cx="0" cy="0" r="1" gradientUnits="userSpaceOnUse" gradientTransform="translate(628.903 -240.825) rotate(11.1829) scale(427.92 544.825)">
<stop stop-color="#9B9C9E"/>
<stop offset="1" stop-color="#9B9C9E" stop-opacity="0"/>
</radialGradient>
<radialGradient id="paint12_radial_1_254" cx="0" cy="0" r="1" gradientUnits="userSpaceOnUse" gradientTransform="translate(644.416 -222.311) rotate(13.5003) scale(428.093 543.54)">
<stop stop-color="#9B9C9E"/>
<stop offset="1" stop-color="#9B9C9E" stop-opacity="0"/>
</radialGradient>
<radialGradient id="paint13_radial_1_254" cx="0" cy="0" r="1" gradientUnits="userSpaceOnUse" gradientTransform="translate(658.803 -203.004) rotate(15.8164) scale(428.15 542.403)">
<stop stop-color="#9B9C9E"/>
<stop offset="1" stop-color="#9B9C9E" stop-opacity="0"/>
</radialGradient>
<radialGradient id="paint14_radial_1_254" cx="0" cy="0" r="1" gradientUnits="userSpaceOnUse" gradientTransform="translate(672.029 -182.952) rotate(18.1326) scale(428.093 541.412)">
<stop stop-color="#9B9C9E"/>
<stop offset="1" stop-color="#9B9C9E" stop-opacity="0"/>
</radialGradient>
<radialGradient id="paint15_radial_1_254" cx="0" cy="0" r="1" gradientUnits="userSpaceOnUse" gradientTransform="translate(697.104 -150.853) rotate(20.45) scale(444.191 546.647)">
<stop stop-color="#9B9C9E"/>
<stop offset="1" stop-color="#9B9C9E" stop-opacity="0"/>
</radialGradient>
<radialGradient id="paint16_radial_1_254" cx="0" cy="0" r="1" gradientUnits="userSpaceOnUse" gradientTransform="translate(717.929 -121.241) rotate(22.7698) scale(456.666 548.991)">
<stop stop-color="#9B9C9E"/>
<stop offset="1" stop-color="#9B9C9E" stop-opacity="0"/>
</radialGradient>
<radialGradient id="paint17_radial_1_254" cx="0" cy="0" r="1" gradientUnits="userSpaceOnUse" gradientTransform="translate(731.745 -90.2273) rotate(25.0935) scale(464.516 553.628)">
<stop stop-color="#9B9C9E"/>
<stop offset="1" stop-color="#9B9C9E" stop-opacity="0"/>
</radialGradient>
<radialGradient id="paint18_radial_1_254" cx="0" cy="0" r="1" gradientUnits="userSpaceOnUse" gradientTransform="translate(728.011 -79.3379) rotate(27.422) scale(448.456 546.905)">
<stop stop-color="#9B9C9E"/>
<stop offset="1" stop-color="#9B9C9E" stop-opacity="0"/>
</radialGradient>
<radialGradient id="paint19_radial_1_254" cx="0" cy="0" r="1" gradientUnits="userSpaceOnUse" gradientTransform="translate(731.937 -63.3493) rotate(29.7567) scale(441.903 541.162)">
<stop stop-color="#9B9C9E"/>
<stop offset="1" stop-color="#9B9C9E" stop-opacity="0"/>
</radialGradient>
<radialGradient id="paint20_radial_1_254" cx="0" cy="0" r="1" gradientUnits="userSpaceOnUse" gradientTransform="translate(725.201 -49.9825) rotate(32.0987) scale(425.396 538.418)">
<stop stop-color="#9B9C9E"/>
<stop offset="1" stop-color="#9B9C9E" stop-opacity="0"/>
</radialGradient>
<radialGradient id="paint21_radial_1_254" cx="0" cy="0" r="1" gradientUnits="userSpaceOnUse" gradientTransform="translate(729.456 -26.2268) rotate(34.4491) scale(424.584 538.375)">
<stop stop-color="#9B9C9E"/>
<stop offset="1" stop-color="#9B9C9E" stop-opacity="0"/>
</radialGradient>
<radialGradient id="paint22_radial_1_254" cx="0" cy="0" r="1" gradientUnits="userSpaceOnUse" gradientTransform="translate(732.341 -2.16813) rotate(36.8091) scale(423.681 538.448)">
<stop stop-color="#9B9C9E"/>
<stop offset="1" stop-color="#9B9C9E" stop-opacity="0"/>
</radialGradient>
<radialGradient id="paint23_radial_1_254" cx="0" cy="0" r="1" gradientUnits="userSpaceOnUse" gradientTransform="translate(733.843 22.1355) rotate(39.1796) scale(422.693 538.629)">
<stop stop-color="#9B9C9E"/>
<stop offset="1" stop-color="#9B9C9E" stop-opacity="0"/>
</radialGradient>
<radialGradient id="paint24_radial_1_254" cx="0" cy="0" r="1" gradientUnits="userSpaceOnUse" gradientTransform="translate(733.95 46.6251) rotate(41.5616) scale(421.627 538.909)">
<stop stop-color="#9B9C9E"/>
<stop offset="1" stop-color="#9B9C9E" stop-opacity="0"/>
</radialGradient>
<radialGradient id="paint25_radial_1_254" cx="0" cy="0" r="1" gradientUnits="userSpaceOnUse" gradientTransform="translate(732.654 71.2416) rotate(43.9562) scale(420.491 539.282)">
<stop stop-color="#9B9C9E"/>
<stop offset="1" stop-color="#9B9C9E" stop-opacity="0"/>
</radialGradient>
<radialGradient id="paint26_radial_1_254" cx="0" cy="0" r="1" gradientUnits="userSpaceOnUse" gradientTransform="translate(729.949 95.9259) rotate(46.364) scale(419.293 539.736)">
<stop stop-color="#9B9C9E"/>
<stop offset="1" stop-color="#9B9C9E" stop-opacity="0"/>
</radialGradient>
<radialGradient id="paint27_radial_1_254" cx="0" cy="0" r="1" gradientUnits="userSpaceOnUse" gradientTransform="translate(725.833 120.619) rotate(48.786) scale(418.042 540.261)">
<stop stop-color="#9B9C9E"/>
<stop offset="1" stop-color="#9B9C9E" stop-opacity="0"/>
</radialGradient>
<radialGradient id="paint28_radial_1_254" cx="0" cy="0" r="1" gradientUnits="userSpaceOnUse" gradientTransform="translate(720.306 145.262) rotate(51.2228) scale(416.746 540.848)">
<stop stop-color="#9B9C9E"/>
<stop offset="1" stop-color="#9B9C9E" stop-opacity="0"/>
</radialGradient>
<radialGradient id="paint29_radial_1_254" cx="0" cy="0" r="1" gradientUnits="userSpaceOnUse" gradientTransform="translate(713.371 169.796) rotate(53.6751) scale(415.416 541.484)">
<stop stop-color="#9B9C9E"/>
<stop offset="1" stop-color="#9B9C9E" stop-opacity="0"/>
</radialGradient>
<radialGradient id="paint30_radial_1_254" cx="0" cy="0" r="1" gradientUnits="userSpaceOnUse" gradientTransform="translate(705.033 194.162) rotate(56.1432) scale(414.06 542.156)">
<stop stop-color="#9B9C9E"/>
<stop offset="1" stop-color="#9B9C9E" stop-opacity="0"/>
</radialGradient>
<radialGradient id="paint31_radial_1_254" cx="0" cy="0" r="1" gradientUnits="userSpaceOnUse" gradientTransform="translate(695.302 218.303) rotate(58.6276) scale(412.69 542.852)">
<stop stop-color="#9B9C9E"/>
<stop offset="1" stop-color="#9B9C9E" stop-opacity="0"/>
</radialGradient>
<radialGradient id="paint32_radial_1_254" cx="0" cy="0" r="1" gradientUnits="userSpaceOnUse" gradientTransform="translate(684.187 242.161) rotate(61.1287) scale(411.315 543.56)">
<stop stop-color="#9B9C9E"/>
<stop offset="1" stop-color="#9B9C9E" stop-opacity="0"/>
</radialGradient>
<radialGradient id="paint33_radial_1_254" cx="0" cy="0" r="1" gradientUnits="userSpaceOnUse" gradientTransform="translate(671.704 265.68) rotate(63.6465) scale(409.946 544.264)">
<stop stop-color="#9B9C9E"/>
<stop offset="1" stop-color="#9B9C9E" stop-opacity="0"/>
</radialGradient>
<radialGradient id="paint34_radial_1_254" cx="0" cy="0" r="1" gradientUnits="userSpaceOnUse" gradientTransform="translate(657.869 288.803) rotate(66.181) scale(408.593 544.95)">
<stop stop-color="#9B9C9E"/>
<stop offset="1" stop-color="#9B9C9E" stop-opacity="0"/>
</radialGradient>
<radialGradient id="paint35_radial_1_254" cx="0" cy="0" r="1" gradientUnits="userSpaceOnUse" gradientTransform="translate(642.701 311.476) rotate(68.7323) scale(407.267 545.606)">
<stop stop-color="#9B9C9E"/>
<stop offset="1" stop-color="#9B9C9E" stop-opacity="0"/>
</radialGradient>
<radialGradient id="paint36_radial_1_254" cx="0" cy="0" r="1" gradientUnits="userSpaceOnUse" gradientTransform="translate(626.222 333.645) rotate(71.3) scale(405.979 546.215)">
<stop stop-color="#9B9C9E"/>
<stop offset="1" stop-color="#9B9C9E" stop-opacity="0"/>
</radialGradient>
<radialGradient id="paint37_radial_1_254" cx="0" cy="0" r="1" gradientUnits="userSpaceOnUse" gradientTransform="translate(608.457 355.257) rotate(73.8837) scale(404.738 546.764)">
<stop stop-color="#9B9C9E"/>
<stop offset="1" stop-color="#9B9C9E" stop-opacity="0"/>
</radialGradient>
<radialGradient id="paint38_radial_1_254" cx="0" cy="0" r="1" gradientUnits="userSpaceOnUse" gradientTransform="translate(589.433 376.261) rotate(76.483) scale(403.555 547.238)">
<stop stop-color="#9B9C9E"/>
<stop offset="1" stop-color="#9B9C9E" stop-opacity="0"/>
</radialGradient>
<radialGradient id="paint39_radial_1_254" cx="0" cy="0" r="1" gradientUnits="userSpaceOnUse" gradientTransform="translate(569.179 396.605) rotate(79.0972) scale(402.439 547.624)">
<stop stop-color="#9B9C9E"/>
<stop offset="1" stop-color="#9B9C9E" stop-opacity="0"/>
</radialGradient>
<radialGradient id="paint40_radial_1_254" cx="0" cy="0" r="1" gradientUnits="userSpaceOnUse" gradientTransform="translate(547.727 416.242) rotate(81.7254) scale(401.398 547.908)">
<stop stop-color="#9B9C9E"/>
<stop offset="1" stop-color="#9B9C9E" stop-opacity="0"/>
</radialGradient>
<radialGradient id="paint41_radial_1_254" cx="0" cy="0" r="1" gradientUnits="userSpaceOnUse" gradientTransform="translate(525.112 435.125) rotate(84.3667) scale(400.443 548.078)">
<stop stop-color="#9B9C9E"/>
<stop offset="1" stop-color="#9B9C9E" stop-opacity="0"/>
</radialGradient>
<radialGradient id="paint42_radial_1_254" cx="0" cy="0" r="1" gradientUnits="userSpaceOnUse" gradientTransform="translate(501.369 453.206) rotate(87.02) scale(399.58 548.122)">
<stop stop-color="#9B9C9E"/>
<stop offset="1" stop-color="#9B9C9E" stop-opacity="0"/>
</radialGradient>
<radialGradient id="paint43_radial_1_254" cx="0" cy="0" r="1" gradientUnits="userSpaceOnUse" gradientTransform="translate(476.538 470.444) rotate(89.6842) scale(398.817 548.028)">
<stop stop-color="#9B9C9E"/>
<stop offset="1" stop-color="#9B9C9E" stop-opacity="0"/>
</radialGradient>
<radialGradient id="paint44_radial_1_254" cx="0" cy="0" r="1" gradientUnits="userSpaceOnUse" gradientTransform="translate(450.658 486.794) rotate(92.3578) scale(398.16 547.788)">
<stop stop-color="#9B9C9E"/>
<stop offset="1" stop-color="#9B9C9E" stop-opacity="0"/>
</radialGradient>
<radialGradient id="paint45_radial_1_254" cx="0" cy="0" r="1" gradientUnits="userSpaceOnUse" gradientTransform="translate(423.773 502.218) rotate(95.0396) scale(397.614 547.394)">
<stop stop-color="#9B9C9E"/>
<stop offset="1" stop-color="#9B9C9E" stop-opacity="0"/>
</radialGradient>
<radialGradient id="paint46_radial_1_254" cx="0" cy="0" r="1" gradientUnits="userSpaceOnUse" gradientTransform="translate(395.927 516.676) rotate(97.7279) scale(397.185 546.838)">
<stop stop-color="#9B9C9E"/>
<stop offset="1" stop-color="#9B9C9E" stop-opacity="0"/>
</radialGradient>
<radialGradient id="paint47_radial_1_254" cx="0" cy="0" r="1" gradientUnits="userSpaceOnUse" gradientTransform="translate(367.166 530.132) rotate(100.421) scale(396.876 546.116)">
<stop stop-color="#9B9C9E"/>
<stop offset="1" stop-color="#9B9C9E" stop-opacity="0"/>
</radialGradient>
<radialGradient id="paint48_radial_1_254" cx="0" cy="0" r="1" gradientUnits="userSpaceOnUse" gradientTransform="translate(337.539 542.553) rotate(103.118) scale(396.69 545.225)">
<stop stop-color="#9B9C9E"/>
<stop offset="1" stop-color="#9B9C9E" stop-opacity="0"/>
</radialGradient>
<radialGradient id="paint49_radial_1_254" cx="0" cy="0" r="1" gradientUnits="userSpaceOnUse" gradientTransform="translate(307.096 553.905) rotate(105.816) scale(396.627 544.162)">
<stop stop-color="#9B9C9E"/>
<stop offset="1" stop-color="#9B9C9E" stop-opacity="0"/>
</radialGradient>
</defs>
</svg>
